<svg width="128" height="22" viewBox="0 0 128 22" fill="none" xmlns="http://www.w3.org/2000/svg">
<path d="M7.84019 3.56109C8.00371 3.4593 8.21057 3.3729 8.36837 3.42928C8.38516 3.43536 8.40325 3.43805 8.42133 3.43716C8.43942 3.43628 8.45707 3.43184 8.47302 3.42416C8.52617 3.39414 8.55478 3.32091 8.56868 3.20815V3.19131L8.5834 3.18106C8.62428 3.15104 9.60215 2.45687 10.3086 2.67362L10.3298 2.68021L10.338 2.69851C10.3471 2.7114 10.3615 2.7206 10.3781 2.72414C10.4149 2.73293 10.5023 2.73073 10.6716 2.61138L10.6789 2.60625H10.6871C11.1878 2.51361 11.7081 2.55827 12.1801 2.73439C12.3171 2.74415 12.4551 2.73476 12.5889 2.70657C12.5971 2.70657 13.3542 2.56012 13.9617 3.4615C13.9666 3.47029 14.0729 3.63138 14.3885 3.55377H14.4064C14.6168 3.59543 14.8142 3.67874 14.9839 3.79759C15.1537 3.91643 15.2916 4.06781 15.3876 4.2406L15.3933 4.25012V4.26111C15.3933 4.30211 15.4031 4.42805 15.4612 4.46833C15.4729 4.47578 15.4867 4.48032 15.5011 4.48148C15.5154 4.48264 15.5299 4.48037 15.5429 4.47492H15.5552C15.5748 4.47492 16.031 4.46906 16.3221 4.7312C16.4004 4.80506 16.4611 4.89243 16.5005 4.98798C16.5398 5.08353 16.557 5.18526 16.551 5.28697C16.5491 5.30422 16.5513 5.32165 16.5575 5.33807C16.5637 5.3545 16.5737 5.36953 16.587 5.38216C16.6255 5.41877 16.7146 5.45538 16.9141 5.43927C16.946 5.43927 17.5682 5.47588 18.1348 6.47246L18.1405 6.49003L18.1495 6.65991C18.1331 6.74192 18.107 6.97624 18.1838 7.07729L18.4177 7.3592C18.4284 7.37379 18.4426 7.38605 18.4594 7.39508C18.5207 7.37384 18.9556 7.2662 19.4904 8.08704C19.4969 8.09583 20.1911 9.11217 19.3833 9.68331C19.2197 9.77338 18.9557 9.94033 18.9205 10.0121L18.9148 10.0238L18.9033 10.0297C18.8943 10.0341 18.017 10.4844 17.3302 9.75873V9.75507V9.75068C17.1965 9.52004 17.0772 9.28291 16.9729 9.04041V9.03162L16.9509 8.82587C16.9509 8.81928 16.9803 8.65086 16.6737 8.57324C16.6402 8.56372 15.8724 8.34918 15.7441 7.86517L15.65 7.61255C15.65 7.61255 15.5626 7.36432 15.3344 7.27938L15.3189 7.27352L15.3107 7.26034C15.3042 7.24936 15.2445 7.14538 15.287 6.88178C15.3145 6.77907 15.2988 6.67089 15.2429 6.5779C15.2103 6.53608 15.1686 6.50062 15.1202 6.47369C15.0719 6.44675 15.0179 6.42889 14.9616 6.4212C14.8478 6.42513 14.7364 6.39093 14.6493 6.32528C14.4923 6.21105 14.3934 6.01261 14.3541 5.73436C14.3288 5.70434 14.1849 5.56082 13.7638 5.60842H13.7515L13.7401 5.60329C13.7197 5.59597 13.2544 5.40339 13.2078 4.82419C13.2078 4.81687 13.1776 4.62429 12.8219 4.6177C12.8113 4.6177 12.4033 4.65798 12.1474 4.14907C12.1327 4.14029 12.0697 4.13589 11.9356 4.2179C11.9356 4.2179 11.4974 4.5108 10.8923 4.00336C10.7934 4.05426 10.7182 4.13536 10.6806 4.23181V4.24133C10.5955 4.35585 10.4707 4.44212 10.3255 4.48685C10.1802 4.53158 10.0226 4.53227 9.87687 4.48883C9.80737 4.49396 9.24485 4.54741 9.21705 4.92817C9.22839 5.0506 9.18551 5.17211 9.09768 5.26646C8.98567 5.3785 8.80824 5.43122 8.56787 5.42389C8.56787 5.42389 8.32258 5.45319 8.24082 5.59011C8.22253 5.63021 8.21486 5.67355 8.2184 5.71674C8.22195 5.75994 8.23662 5.80181 8.26126 5.83907C8.31052 5.92128 8.32168 6.01755 8.29233 6.10707C8.24654 6.23521 8.11491 6.33699 7.90069 6.40875H7.88271C7.88271 6.40875 7.77887 6.40289 7.74698 6.45854C7.72818 6.49076 7.71918 6.57424 7.86799 6.76901C7.87535 6.77853 8.07076 7.02603 7.99554 7.56276C7.99145 7.6206 7.99554 7.79488 8.0773 7.87616C8.09065 7.89022 8.10716 7.90159 8.12576 7.90954C8.14436 7.91749 8.16462 7.92184 8.18522 7.92229C8.19912 7.92229 9.01755 8.05921 8.93579 8.87932V8.8903L8.92843 8.89909C8.92843 8.89909 8.68724 9.19711 8.73875 9.42191C8.74594 9.45566 8.76074 9.48774 8.78225 9.5162C8.80376 9.54465 8.83152 9.56888 8.86384 9.58739C8.93334 9.60716 9.43617 9.76386 9.41573 10.2098C9.41573 10.2164 9.37322 10.5583 9.50567 10.715C9.52042 10.7345 9.53951 10.7511 9.56174 10.7637C9.58397 10.7763 9.60886 10.7847 9.63485 10.7883C9.6512 10.7883 10.163 10.8124 10.4745 11.5C10.4884 11.5234 10.8449 12.151 10.5882 12.4153C10.5813 12.4462 10.5883 12.4783 10.6078 12.5046C10.6389 12.5471 10.719 12.6013 10.9242 12.6196C10.9774 12.6196 11.2513 12.6415 11.6732 13.3745C11.7824 13.5709 11.8175 13.7936 11.7733 14.0094C11.729 14.2251 11.6078 14.4222 11.4279 14.571C11.4189 14.579 10.4091 15.4878 9.35523 14.6977C9.13024 14.5319 8.95397 14.3192 8.84181 14.0784C8.72965 13.8376 8.685 13.5758 8.71177 13.3159V13.3035L8.71994 13.294C8.71994 13.294 8.76982 13.2376 8.74938 13.1944C8.73875 13.1717 8.69705 13.1314 8.53761 13.1131C8.50818 13.1094 8.34302 13.0626 7.93912 12.501L7.92195 12.4768L7.93912 12.4548C7.99635 12.3816 8.06095 12.2557 8.03233 12.2154C8.02088 12.1985 7.98245 12.1927 7.92686 12.1993H7.91786C7.91296 12.1993 7.45101 12.137 7.45428 11.4634V11.4524L7.46082 11.4429C7.52132 11.355 7.60308 11.1873 7.5622 11.1126C7.5573 11.1039 7.5434 11.0782 7.48044 11.0702L7.46327 11.0643C7.44937 11.057 7.13622 10.8798 7.04302 10.3321C7.04302 10.3145 7.01358 9.96596 7.13949 9.77704C7.12314 9.717 7.0332 9.46511 6.61704 9.21688L6.60641 9.20956C6.60641 9.20516 6.22622 8.80463 6.58842 8.35943C6.61668 8.33131 6.63845 8.29845 6.65249 8.26276C6.66652 8.22707 6.67253 8.18925 6.67018 8.15147C6.66201 8.0431 6.58842 7.9318 6.44861 7.81977C6.37257 7.80147 6.02345 7.68065 5.9515 7.01431C5.9515 6.98356 5.891 6.28208 6.30144 6.20153C6.33551 6.15289 6.35539 6.09735 6.35925 6.04003C6.36311 5.98271 6.35082 5.92545 6.32352 5.87349L6.31616 5.86031V5.84566C6.34477 5.72045 6.60968 4.62942 7.04629 4.68727C7.05658 4.68565 7.06636 4.68206 7.07497 4.67676C7.08357 4.67145 7.0908 4.66455 7.09616 4.65651C7.10031 4.63652 7.09976 4.61597 7.09455 4.59618C7.08934 4.57639 7.07959 4.55778 7.06591 4.54155L7.05692 4.52764V4.51226C7.05692 4.49176 7.17629 4.01068 7.53685 3.79028L7.54421 3.78515C7.63522 3.70271 7.73427 3.62772 7.84019 3.56109Z" fill="#A3A3A3"/>
<path d="M8.53073 3.48999L8.51929 3.49585C8.49169 3.50939 8.46106 3.51721 8.42965 3.51873C8.39823 3.52025 8.36683 3.51543 8.33777 3.50464C8.1252 3.43141 7.73683 3.72431 7.60192 3.84366L7.59538 3.84805C7.28959 4.03477 7.16859 4.43384 7.14733 4.51292C7.16646 4.5386 7.17864 4.56793 7.1829 4.59856C7.18716 4.6292 7.18338 4.6603 7.17186 4.68939C7.15988 4.70951 7.14259 4.72669 7.1215 4.73945C7.10041 4.75222 7.07616 4.76017 7.05085 4.76262H7.03859C6.73689 4.71282 6.48016 5.51462 6.40167 5.84633C6.4335 5.91256 6.44621 5.98489 6.43864 6.05668C6.43106 6.12846 6.40345 6.19739 6.35833 6.25711L6.3477 6.27029H6.33135C5.97487 6.32301 6.03129 6.99594 6.0321 7.00253C6.10405 7.66813 6.46135 7.73476 6.46462 7.73476H6.4777L6.48833 7.74282C6.65186 7.87389 6.74179 8.00862 6.7516 8.14335C6.7554 8.19091 6.74853 8.23867 6.7314 8.28382C6.71427 8.32897 6.68722 8.37058 6.65186 8.40622C6.56259 8.51302 6.5153 8.64326 6.51737 8.77665C6.51944 8.91004 6.57076 9.03906 6.6633 9.14359C7.17268 9.44893 7.22419 9.76159 7.22582 9.77477V9.78942L7.21683 9.80187C7.09582 9.96955 7.12444 10.3144 7.12444 10.3181C7.20047 10.7794 7.44658 10.9537 7.49073 10.9815C7.52095 10.9847 7.54982 10.9945 7.57478 11.0101C7.59974 11.0257 7.62002 11.0465 7.63381 11.0708C7.70412 11.2004 7.57085 11.4172 7.5357 11.4706C7.5357 12.0242 7.86274 12.1004 7.91098 12.1084C7.94536 12.1 7.98174 12.101 8.01551 12.1112C8.04928 12.1213 8.07892 12.1403 8.10067 12.1655C8.16281 12.2556 8.06878 12.4094 8.02381 12.4731C8.39092 12.9798 8.53973 13.023 8.54054 13.0237C8.69671 13.0405 8.79073 13.0845 8.82425 13.157C8.83498 13.1858 8.83768 13.2166 8.83213 13.2466C8.82657 13.2765 8.81292 13.3049 8.79237 13.329C8.76853 13.5727 8.81114 13.8179 8.91653 14.0435C9.02192 14.2692 9.18695 14.4685 9.3974 14.6244C10.3908 15.3691 11.345 14.5109 11.3548 14.5014C11.5231 14.3667 11.6371 14.186 11.6788 13.9873C11.7205 13.7887 11.6876 13.5832 11.5853 13.403C11.1765 12.6861 10.9272 12.6935 10.9247 12.6935H10.9157C10.717 12.6766 10.5887 12.6202 10.5241 12.5375C10.5064 12.5129 10.4947 12.4853 10.4899 12.4564C10.4851 12.4274 10.4873 12.3979 10.4963 12.3698L10.5053 12.3566C10.7334 12.137 10.3883 11.5292 10.3851 11.5234C10.094 10.8841 9.62715 10.8643 9.62225 10.8643C9.58345 10.8597 9.54612 10.848 9.51252 10.83C9.47893 10.812 9.44978 10.788 9.42684 10.7596C9.26985 10.5751 9.31482 10.2112 9.31646 10.1958C9.33608 9.79088 8.83325 9.66274 8.82589 9.66201L8.81281 9.65615C8.76816 9.63134 8.72967 9.59858 8.69972 9.55992C8.66976 9.52125 8.64898 9.4775 8.63866 9.43135C8.58469 9.19191 8.794 8.90854 8.83652 8.85362C8.90275 8.12139 8.1996 8.00496 8.16935 8.00057C8.13715 7.99941 8.10558 7.99231 8.07659 7.97971C8.04761 7.96711 8.02185 7.94928 8.00092 7.92734C7.87746 7.8014 7.89299 7.56122 7.89381 7.54804C7.96494 7.04207 7.78507 6.81581 7.78343 6.81581C7.64526 6.63495 7.60356 6.50534 7.65507 6.41747C7.67752 6.38759 7.70842 6.36357 7.74461 6.34788C7.78081 6.33219 7.82101 6.32537 7.86111 6.32814C8.04507 6.26517 8.15627 6.18169 8.19306 6.07844C8.21617 6.01041 8.20823 5.93695 8.17098 5.87415C8.13878 5.82514 8.12 5.77 8.11616 5.71324C8.11232 5.65648 8.12355 5.59971 8.14891 5.54757C8.24947 5.37403 8.53482 5.34182 8.54708 5.34108C8.76702 5.34768 8.92319 5.30301 9.01721 5.20855C9.0897 5.12934 9.12489 5.02796 9.11533 4.92591C9.14885 4.44776 9.83237 4.40968 9.86181 4.40821H9.87652C10.3368 4.52903 10.5592 4.24053 10.5878 4.20099C10.6371 4.07779 10.7372 3.97614 10.8675 3.91688L10.8953 3.90444L10.919 3.92494C11.4766 4.41188 11.8568 4.16218 11.8723 4.1512C11.9901 4.07798 12.0824 4.05235 12.1495 4.06846C12.1764 4.07439 12.1998 4.08932 12.2149 4.11019C12.4422 4.56857 12.7872 4.53855 12.8036 4.53709C13.2516 4.54514 13.2868 4.81973 13.2876 4.82266C13.3269 5.30813 13.6833 5.49412 13.752 5.52561C14.2777 5.46996 14.4208 5.69329 14.4274 5.70281L14.4331 5.71892C14.4666 5.97813 14.5541 6.15826 14.6915 6.26004C14.7612 6.31452 14.8517 6.34284 14.9441 6.33912H14.9588C15.0292 6.34836 15.0967 6.37065 15.157 6.40457C15.2172 6.43848 15.2689 6.48328 15.3087 6.53609C15.3783 6.64744 15.3984 6.77816 15.3652 6.90221C15.3424 7.004 15.3452 7.10905 15.3733 7.20975C15.6301 7.31666 15.7216 7.57953 15.7257 7.59051L15.8206 7.84606C15.9375 8.28541 16.6774 8.49116 16.6848 8.49336C17.0396 8.58416 17.0356 8.79504 17.0306 8.83751L17.0527 9.02204C17.1544 9.257 17.2704 9.48678 17.4002 9.71034C17.8908 10.2229 18.4893 10.094 18.7378 10.0032C18.7938 9.98306 18.844 9.95205 18.885 9.91244C19.021 9.7981 19.17 9.69698 19.3298 9.61075C20.0714 9.08428 19.4418 8.16239 19.4115 8.12358C18.8932 7.32618 18.4925 7.46457 18.4893 7.46896H18.4827C18.414 7.4858 18.3544 7.41404 18.3437 7.3994L18.1099 7.11676C18.0003 6.97031 18.0494 6.68254 18.0576 6.63934L18.0486 6.49289C17.5081 5.55416 16.9244 5.51536 16.9178 5.51536C16.7314 5.53293 16.5908 5.50437 16.5172 5.43042C16.4949 5.4091 16.4779 5.38378 16.4673 5.35613C16.4567 5.32849 16.4528 5.29915 16.4559 5.27006C16.4607 5.18072 16.4454 5.09141 16.4109 5.00749C16.3763 4.92357 16.3232 4.84676 16.2547 4.78166C16.0094 4.56198 15.6137 4.551 15.5614 4.551C15.5342 4.55993 15.505 4.56253 15.4764 4.55856C15.4478 4.55459 15.4207 4.54418 15.3979 4.5283C15.303 4.46167 15.2932 4.30863 15.2924 4.26323C15.2022 4.10711 15.0758 3.97004 14.9217 3.86119C14.7676 3.75233 14.5893 3.67421 14.3987 3.63204C14.0177 3.72138 13.8828 3.50683 13.8771 3.49731C13.3048 2.65597 12.6343 2.77752 12.6057 2.78338C12.4589 2.81523 12.3072 2.82488 12.1568 2.81194H12.1454C11.6911 2.64438 11.1918 2.60008 10.7097 2.68453C10.5584 2.78924 10.435 2.83098 10.3417 2.80388C10.3086 2.79387 10.28 2.77463 10.26 2.74897C9.64269 2.57469 8.76784 3.15536 8.64683 3.23883C8.64193 3.36185 8.60023 3.44679 8.53073 3.48999Z" fill="#A3A3A3"/>
<path d="M19.2829 9.20297C19.2854 9.06911 19.2706 8.93544 19.2388 8.80463C19.21 8.67347 19.1616 8.54638 19.0949 8.4268C19.026 8.31083 18.9374 8.20512 18.8324 8.1134C18.7267 8.01982 18.6083 7.93841 18.48 7.87103V7.86371C18.5544 7.88053 18.6263 7.90511 18.6943 7.93693C18.7286 7.95304 18.7621 7.97135 18.7965 7.98892L18.8888 8.05555C19.0058 8.15209 19.0973 8.27063 19.157 8.40264C19.218 8.52983 19.2595 8.66382 19.2805 8.80097C19.301 8.93518 19.304 9.07107 19.2895 9.2059L19.2829 9.20297Z" fill="#A3A3A3"/>
<path d="M18.3343 9.87635C18.1889 9.83921 18.0488 9.78738 17.9165 9.72185C17.7818 9.65361 17.6575 9.56992 17.5469 9.47289C17.432 9.37477 17.3424 9.2553 17.2845 9.12288L17.2485 9.02183C17.2428 8.98669 17.2362 8.95227 17.2322 8.91785C17.2232 8.84975 17.2232 8.78093 17.2322 8.71283H17.2412C17.2641 8.84408 17.3053 8.97224 17.3638 9.09432C17.4214 9.21539 17.4992 9.32795 17.5944 9.42822C17.6946 9.52719 17.8089 9.61386 17.9345 9.68597C18.059 9.76001 18.1926 9.82095 18.3327 9.86757L18.3343 9.87635Z" fill="#A3A3A3"/>
<path d="M16.9678 8.30184C16.8364 8.27813 16.7088 8.24027 16.5876 8.18908C16.4631 8.13611 16.3482 8.06676 16.2467 7.98332C16.1398 7.89856 16.059 7.79065 16.012 7.66992C16.003 7.63917 15.9916 7.60841 15.9842 7.57766C15.9768 7.5469 15.9768 7.51542 15.976 7.48467C15.974 7.42367 15.9803 7.36269 15.9948 7.30307H16.0038C16.0177 7.41965 16.0485 7.53412 16.0954 7.64356C16.1422 7.75107 16.21 7.85025 16.2957 7.93645C16.387 8.02139 16.4917 8.09392 16.6064 8.15173C16.7208 8.21122 16.8427 8.25842 16.9694 8.29232L16.9678 8.30184Z" fill="#A3A3A3"/>
<path d="M15.1552 6.25802C15.0002 6.21713 14.8595 6.14152 14.7464 6.03835C14.6838 5.9861 14.6364 5.92102 14.6082 5.8487C14.5824 5.77748 14.5809 5.70097 14.6041 5.62903H14.6131C14.6354 5.69505 14.6627 5.75963 14.6948 5.82234C14.7235 5.88347 14.7594 5.94166 14.802 5.99588C14.8491 6.05084 14.9041 6.10006 14.9655 6.14232C15.0263 6.18577 15.0924 6.22286 15.1625 6.25289L15.1552 6.25802Z" fill="#A3A3A3"/>
<path d="M14.0832 5.42392C13.9246 5.39711 13.7762 5.33434 13.6523 5.2416C13.5849 5.19451 13.5308 5.13379 13.4945 5.0644C13.4609 4.99532 13.451 4.91887 13.4659 4.84473H13.4782C13.5069 4.90861 13.5402 4.97074 13.5779 5.03071C13.6127 5.08939 13.6546 5.1444 13.703 5.19474C13.7556 5.2443 13.8152 5.28739 13.8805 5.32288C13.9452 5.3608 14.0146 5.392 14.0873 5.41587L14.0832 5.42392Z" fill="#A3A3A3"/>
<path d="M13.0871 4.39852C12.93 4.41837 12.77 4.40016 12.6235 4.3458C12.5439 4.31949 12.4726 4.27627 12.4158 4.21986C12.3607 4.16189 12.3252 4.091 12.3136 4.01556H12.3218C12.3704 4.06909 12.4228 4.11972 12.4788 4.16714C12.5307 4.21381 12.5886 4.25485 12.6513 4.28942C12.7172 4.32181 12.7876 4.34642 12.8606 4.36264C12.9343 4.3803 13.01 4.39038 13.0862 4.39267L13.0871 4.39852Z" fill="#A3A3A3"/>
<path d="M11.9421 3.97797C11.8084 4.05 11.6551 4.0875 11.499 4.08634C11.4161 4.08811 11.334 4.07124 11.2603 4.03728C11.1857 4.00074 11.1246 3.94553 11.0845 3.87839L11.091 3.87253C11.1564 3.90702 11.2245 3.93736 11.2946 3.96333C11.3606 3.98948 11.4297 4.00865 11.5006 4.02044C11.5736 4.02959 11.6476 4.02959 11.7206 4.02044C11.7947 4.01269 11.8675 3.9967 11.9372 3.97285L11.9421 3.97797Z" fill="#A3A3A3"/>
<path d="M10.5982 3.99246C10.5232 4.11495 10.4117 4.21636 10.276 4.28536C10.2069 4.3235 10.1275 4.34401 10.0463 4.34467C9.96303 4.34391 9.88202 4.32041 9.81409 4.2773V4.26925C9.88775 4.27197 9.96154 4.26977 10.0348 4.26266C10.105 4.25779 10.1742 4.24524 10.2409 4.22531C10.3081 4.2009 10.3711 4.16811 10.4281 4.12793C10.4889 4.08817 10.5439 4.04167 10.5916 3.98953L10.5982 3.99246Z" fill="#A3A3A3"/>
<path d="M8.51947 5.24287C8.58146 5.23032 8.64137 5.21063 8.69771 5.18429C8.75314 5.16053 8.80372 5.1286 8.84733 5.08983C8.88599 5.05017 8.91769 5.00548 8.94136 4.9573C8.96792 4.90634 8.99033 4.85372 9.0084 4.79987H9.0174C9.04353 4.86132 9.04612 4.9288 9.02476 4.99171C9.00023 5.0514 8.95531 5.10265 8.89639 5.13816C8.78666 5.2087 8.65535 5.24731 8.52029 5.24873L8.51947 5.24287Z" fill="#A3A3A3"/>
<path d="M7.61395 6.28128C7.67433 6.26387 7.73181 6.23924 7.78483 6.20806C7.83738 6.17917 7.8841 6.14253 7.92301 6.09968C7.95755 6.05652 7.98508 6.00918 8.00477 5.95909C8.02562 5.90558 8.04202 5.85076 8.05383 5.79507H8.06282C8.09553 5.85425 8.10531 5.92149 8.09062 5.98619C8.07356 6.04908 8.03462 6.10549 7.97943 6.14728C7.87924 6.22815 7.75358 6.2793 7.61968 6.29373L7.61395 6.28128Z" fill="#A3A3A3"/>
<path d="M6.81041 8.37701C6.77671 8.45154 6.75337 8.5295 6.74092 8.60913C6.72538 8.68735 6.72538 8.76742 6.74092 8.84564C6.7627 8.9192 6.80298 8.98732 6.85865 9.04481C6.91637 9.10648 6.98257 9.16135 7.0557 9.2081V9.21615C6.95475 9.20409 6.86162 9.16097 6.79226 9.09418C6.7229 9.02739 6.68163 8.94108 6.67551 8.85004C6.66234 8.68197 6.70776 8.51438 6.80551 8.37042L6.81041 8.37701Z" fill="#A3A3A3"/>
<path d="M7.38675 9.90686C7.36774 10.0035 7.36198 10.1019 7.36958 10.1998C7.37382 10.2965 7.3945 10.392 7.4309 10.4831C7.47009 10.5701 7.52537 10.6506 7.59442 10.7211C7.66737 10.7938 7.74971 10.8584 7.83971 10.9137V10.921C7.72514 10.8995 7.62003 10.8486 7.53719 10.7746C7.45356 10.6981 7.39427 10.6031 7.36549 10.4992C7.33513 10.4006 7.3219 10.2983 7.32625 10.1961C7.33036 10.0968 7.3485 9.9984 7.38021 9.9032L7.38675 9.90686Z" fill="#A3A3A3"/>
<path d="M7.75411 11.2797C7.75886 11.3539 7.77201 11.4275 7.79335 11.4993C7.81259 11.5703 7.83999 11.6392 7.87512 11.7051C7.9127 11.7681 7.95533 11.8285 8.00266 11.886C8.04518 11.9467 8.09914 11.998 8.15147 12.061L8.14656 12.0683C8.06435 12.0405 7.99125 11.9947 7.93398 11.935C7.87783 11.8739 7.83561 11.8035 7.80971 11.7278C7.75245 11.5848 7.73069 11.4324 7.74593 11.2811L7.75411 11.2797Z" fill="#A3A3A3"/>
<path d="M8.22169 12.2943C8.25169 12.3644 8.28949 12.4316 8.33452 12.4949C8.37779 12.5577 8.4285 12.6161 8.48578 12.6692C8.54409 12.7177 8.60702 12.7615 8.67383 12.8003C8.74159 12.8413 8.81203 12.8787 8.88477 12.9123V12.9203C8.79754 12.9252 8.71054 12.908 8.63377 12.8706C8.556 12.8307 8.48856 12.7766 8.4359 12.7117C8.32773 12.59 8.2522 12.4477 8.21515 12.2957L8.22169 12.2943Z" fill="#A3A3A3"/>
<path d="M9.14455 10.7381C9.1638 10.6415 9.16984 10.5431 9.16254 10.4452C9.15759 10.3485 9.13665 10.253 9.1004 10.1618C9.06121 10.0748 9.00592 9.99437 8.93687 9.92384C8.86414 9.85097 8.78178 9.7863 8.69159 9.73126V9.72321C8.80602 9.74503 8.91104 9.79586 8.99411 9.86965C9.07824 9.94561 9.13858 10.0401 9.16908 10.1435C9.19877 10.2423 9.21172 10.3445 9.2075 10.4467C9.20339 10.5459 9.18525 10.6443 9.15354 10.7395L9.14455 10.7381Z" fill="#A3A3A3"/>
<path d="M10.2712 12.4914C10.268 12.2107 10.203 11.9332 10.0799 11.675C10.0143 11.5488 9.93341 11.4295 9.83873 11.3191C9.74479 11.2069 9.63911 11.1029 9.52313 11.0087L9.52722 11.0021C9.59955 11.0337 9.66781 11.0722 9.73081 11.117C9.76269 11.1397 9.79376 11.1639 9.82483 11.1903L9.90659 11.2715C10.0106 11.3856 10.0911 11.5152 10.1445 11.6545C10.2569 11.9226 10.303 12.2095 10.2794 12.4951L10.2712 12.4914Z" fill="#A3A3A3"/>
<path d="M11.3618 14.1984C11.3606 14.058 11.3434 13.9182 11.3103 13.781C11.2795 13.6436 11.2324 13.5096 11.1697 13.3812C11.1042 13.2554 11.0236 13.1363 10.9293 13.026C10.8353 12.9136 10.7294 12.8096 10.6129 12.7156L10.6178 12.7083C10.6901 12.7403 10.7583 12.779 10.8214 12.8239C10.8533 12.8466 10.8844 12.8708 10.9154 12.8972L10.9972 12.9784C11.1003 13.0927 11.1808 13.222 11.2351 13.3607C11.347 13.6289 11.393 13.9157 11.37 14.2013L11.3618 14.1984Z" fill="#A3A3A3"/>
<path d="M9.05697 13.3652C9.08716 13.5041 9.13319 13.6398 9.19433 13.7702C9.30741 14.032 9.48846 14.2659 9.72251 14.4526C9.83778 14.547 9.96259 14.6315 10.0953 14.7052V14.7126C10.0186 14.6936 9.94429 14.6673 9.87376 14.6342C9.83779 14.6174 9.80263 14.5983 9.76747 14.58L9.67018 14.5134C9.54519 14.418 9.43977 14.3037 9.35867 14.1758C9.19209 13.9284 9.08618 13.6521 9.04797 13.3652H9.05697Z" fill="#A3A3A3"/>
<path d="M8.43414 9.1217C8.46563 9.03514 8.48459 8.94532 8.49056 8.85443C8.49949 8.76441 8.49232 8.6737 8.4693 8.5857C8.44197 8.50098 8.39734 8.42153 8.33766 8.35139C8.2753 8.27898 8.20368 8.21337 8.12427 8.15588V8.14856C8.23174 8.17393 8.32845 8.22717 8.40226 8.3016C8.47483 8.37977 8.5213 8.47469 8.53634 8.57545C8.55355 8.67027 8.55355 8.76694 8.53634 8.86176C8.51771 8.95277 8.48639 9.04133 8.44314 9.12536L8.43414 9.1217Z" fill="#A3A3A3"/>
<path d="M17.7698 7.09715C17.7556 6.95404 17.7235 6.81281 17.6742 6.67612C17.6277 6.53903 17.5624 6.40767 17.4796 6.2851C17.3942 6.16767 17.291 6.06146 17.173 5.96951C17.0541 5.87566 16.9232 5.79479 16.783 5.7286V5.72055C16.8625 5.73599 16.9398 5.75932 17.0135 5.79011C17.0503 5.80622 17.0871 5.8238 17.1239 5.84137L17.2253 5.90727C17.355 6.00383 17.4615 6.12289 17.5384 6.25728C17.6166 6.38744 17.6759 6.52596 17.715 6.66953C17.7536 6.81051 17.7741 6.95495 17.7764 7.10008L17.7698 7.09715Z" fill="#A3A3A3"/>
<path d="M16.3064 5.45675C16.2805 5.3588 16.2418 5.26393 16.1911 5.1741C16.1443 5.08471 16.081 5.00302 16.0038 4.93246C15.9268 4.8701 15.8343 4.82494 15.734 4.80066C15.6314 4.77664 15.5253 4.76652 15.4193 4.77064V4.76259C15.522 4.71629 15.639 4.70162 15.752 4.72085C15.871 4.74537 15.9778 4.80399 16.0562 4.8878C16.1321 4.96854 16.1923 5.06012 16.2344 5.15873C16.2747 5.25457 16.3022 5.35436 16.3162 5.45601L16.3064 5.45675Z" fill="#A3A3A3"/>
<path d="M15.1131 4.56518C15.0873 4.46724 15.0486 4.37237 14.9979 4.28254C14.9507 4.19313 14.8872 4.11145 14.8098 4.0409C14.7328 3.9784 14.6404 3.93321 14.54 3.90909C14.4373 3.88507 14.3312 3.87495 14.2252 3.87908V3.87102C14.3283 3.82467 14.4455 3.81 14.5588 3.82928C14.6775 3.8538 14.7841 3.91243 14.8621 3.99623C14.9383 4.07694 14.9988 4.16852 15.0412 4.26716C15.0808 4.36321 15.1082 4.46293 15.123 4.56445L15.1131 4.56518Z" fill="#A3A3A3"/>
<path d="M11.9417 2.97567C11.8326 2.92098 11.7165 2.87821 11.5959 2.84826C11.4802 2.8168 11.3595 2.8027 11.2386 2.80653C11.1237 2.81533 11.0122 2.84604 10.9116 2.89659C10.8094 2.94855 10.7165 3.01396 10.636 3.09063L10.6287 3.08624C10.653 3.03392 10.6849 2.98468 10.7235 2.93979C10.7431 2.91783 10.7652 2.89732 10.7865 2.87609C10.8077 2.85485 10.838 2.84167 10.8633 2.8241C10.9739 2.76329 11.1025 2.73393 11.2321 2.73989C11.3605 2.74468 11.4872 2.76792 11.6073 2.80872C11.7269 2.84958 11.8406 2.90317 11.9458 2.96835L11.9417 2.97567Z" fill="#A3A3A3"/>
<path d="M10.358 3.01027C10.2155 2.98396 10.07 2.97314 9.92465 2.97805C9.78277 2.98076 9.64207 3.00172 9.50685 3.04029C9.37724 3.08232 9.25665 3.144 9.15037 3.22262C9.04187 3.30255 8.94614 3.39543 8.86584 3.49867L8.85767 3.49501C8.87991 3.4314 8.91066 3.37042 8.94924 3.31342C8.96886 3.28559 8.99094 3.2585 9.0122 3.23067C9.03345 3.20285 9.06452 3.18308 9.09396 3.15745C9.20588 3.06864 9.34077 3.00623 9.48641 2.97585C9.62982 2.94347 9.77771 2.92991 9.92547 2.93558C10.0737 2.94149 10.2205 2.96337 10.3629 3.00075L10.358 3.01027Z" fill="#A3A3A3"/>
<path d="M7.40057 4.76627C7.41305 4.63384 7.44353 4.50327 7.49133 4.37746C7.53956 4.25213 7.60787 4.13373 7.6941 4.02598C7.77874 3.91547 7.89284 3.82562 8.02605 3.76458C8.06039 3.75139 8.09391 3.73748 8.12907 3.72576C8.16423 3.71405 8.20184 3.70966 8.23781 3.7038C8.31116 3.69197 8.38589 3.68853 8.4602 3.69355V3.69941C8.32352 3.7284 8.19199 3.77423 8.06938 3.8356C7.95071 3.89577 7.84428 3.97351 7.7546 4.06552C7.665 4.16408 7.592 4.27386 7.53793 4.39137C7.47912 4.51067 7.43736 4.63614 7.41366 4.76481L7.40057 4.76627Z" fill="#A3A3A3"/>
<path d="M6.80968 6.12542C6.767 6.00655 6.73957 5.88372 6.72792 5.7593C6.7178 5.63437 6.72827 5.50879 6.75899 5.38659C6.78811 5.26367 6.85331 5.14993 6.94786 5.05708C6.9732 5.03585 6.99773 5.01388 7.02389 4.99411C7.05006 4.97434 7.08195 4.96043 7.11138 4.94578C7.17106 4.91637 7.23485 4.89421 7.30107 4.87988V4.88794C7.19523 4.95064 7.09997 5.02658 7.01817 5.11347C6.93582 5.19973 6.87231 5.29909 6.83094 5.40636C6.79293 5.52038 6.77419 5.63885 6.77534 5.75783C6.77429 5.88103 6.78938 6.00391 6.82031 6.12395L6.80968 6.12542Z" fill="#A3A3A3"/>
<path d="M6.59559 7.67688C6.51188 7.57515 6.44164 7.46506 6.38628 7.34883C6.33051 7.23218 6.29415 7.10882 6.27836 6.98271C6.2589 6.85574 6.27724 6.72641 6.3315 6.60781C6.34704 6.57998 6.36093 6.55143 6.3781 6.52433C6.39527 6.49724 6.41899 6.47381 6.44106 6.45111C6.48569 6.40537 6.5365 6.36479 6.59232 6.33029L6.59804 6.33688C6.52095 6.43053 6.45927 6.53361 6.4149 6.64296C6.37034 6.75174 6.34818 6.86685 6.34949 6.98271C6.35724 7.10403 6.38479 7.22368 6.43125 7.33785C6.47431 7.45564 6.53277 7.56845 6.6054 7.67395L6.59559 7.67688Z" fill="#A3A3A3"/>
<path d="M7.51944 6.59332C7.59992 6.68752 7.66797 6.78973 7.72221 6.89793C7.77648 7.00705 7.8123 7.12279 7.8285 7.24135C7.84832 7.36087 7.83106 7.48296 7.77863 7.59429C7.76391 7.62065 7.75001 7.64774 7.73366 7.67264C7.71731 7.69754 7.6936 7.71877 7.67234 7.74074C7.62998 7.78315 7.58128 7.82011 7.52762 7.85057L7.5219 7.84471C7.5943 7.75739 7.6529 7.66154 7.69605 7.55988C7.73811 7.45847 7.7589 7.35098 7.75737 7.24282C7.75025 7.12945 7.72435 7.01766 7.68051 6.91111C7.63807 6.8014 7.58155 6.69648 7.51208 6.59845L7.51944 6.59332Z" fill="#A3A3A3"/>
<path d="M13.7961 3.61902C13.7092 3.50852 13.6091 3.40687 13.4976 3.31587C13.3892 3.2256 13.268 3.14854 13.1371 3.08668C13.0083 3.03046 12.8702 2.99312 12.7282 2.97611C12.5866 2.95927 12.4431 2.95927 12.3015 2.97611V2.96806C12.368 2.94016 12.4379 2.91951 12.5099 2.90655C12.5467 2.90069 12.5843 2.89703 12.622 2.89191H12.7356C12.8897 2.90599 13.038 2.95186 13.1689 3.0259C13.301 3.09751 13.422 3.18442 13.5287 3.28438C13.634 3.38409 13.7265 3.49414 13.8042 3.61243L13.7961 3.61902Z" fill="#A3A3A3"/>
<path opacity="0.1" d="M18.7011 9.41959C18.9545 9.27301 18.9857 8.91268 18.7709 8.61477C18.556 8.31685 18.1764 8.19417 17.923 8.34074C17.6696 8.48732 17.6384 8.84765 17.8533 9.14556C18.0682 9.44348 18.4478 9.56616 18.7011 9.41959Z" fill="#A3A3A3"/>
<path opacity="0.1" d="M17.0664 7.7417C17.3609 7.683 17.5192 7.31221 17.4201 6.91352C17.321 6.51484 17.002 6.23922 16.7076 6.29792C16.4131 6.35662 16.2548 6.72741 16.3539 7.12609C16.453 7.52478 16.772 7.8004 17.0664 7.7417Z" fill="#A3A3A3"/>
<path opacity="0.1" d="M9.54271 12.6274C9.81716 12.5154 9.88628 12.1232 9.69708 11.7516C9.50788 11.38 9.132 11.1695 8.85755 11.2816C8.58309 11.3937 8.51397 11.7858 8.70318 12.1574C8.89238 12.5291 9.26825 12.7395 9.54271 12.6274Z" fill="#A3A3A3"/>
<path opacity="0.1" d="M10.6774 14.4112C10.9519 14.2991 11.021 13.907 10.8318 13.5353C10.6426 13.1637 10.2667 12.9533 9.99225 13.0653C9.71779 13.1774 9.64868 13.5695 9.83788 13.9412C10.0271 14.3128 10.403 14.5232 10.6774 14.4112Z" fill="#A3A3A3"/>
<path opacity="0.1" d="M15.882 5.81144C16.0198 5.68212 15.9546 5.42611 15.7363 5.23961C15.5181 5.05311 15.2295 5.00675 15.0917 5.13606C14.9539 5.26538 15.0191 5.5214 15.2373 5.7079C15.4556 5.89439 15.7442 5.94075 15.882 5.81144Z" fill="#A3A3A3"/>
<path opacity="0.1" d="M8.57172 4.78187C8.75879 4.56996 8.78353 4.30831 8.62696 4.19745C8.47039 4.08659 8.19182 4.16852 8.00474 4.38043C7.81767 4.59234 7.79294 4.854 7.94951 4.96485C8.10607 5.07571 8.38465 4.99379 8.57172 4.78187Z" fill="#A3A3A3"/>
<path opacity="0.1" d="M7.71479 5.86497C7.90186 5.65306 7.92659 5.3914 7.77002 5.28055C7.61346 5.16969 7.33488 5.25161 7.14781 5.46353C6.96074 5.67544 6.936 5.9371 7.09257 6.04795C7.24914 6.15881 7.52771 6.07689 7.71479 5.86497Z" fill="#A3A3A3"/>
<path opacity="0.1" d="M7.0936 7.62192C7.29184 7.60116 7.42414 7.36682 7.3891 7.09851C7.35407 6.83019 7.16496 6.62951 6.96673 6.65027C6.76849 6.67104 6.63619 6.90538 6.67123 7.17369C6.70626 7.442 6.89537 7.64268 7.0936 7.62192Z" fill="#A3A3A3"/>
<path opacity="0.1" d="M7.70268 9.21269C7.96281 9.18545 8.14528 8.94585 8.11025 8.67754C8.07521 8.40923 7.83593 8.2138 7.5758 8.24105C7.31567 8.26829 7.1332 8.50789 7.16824 8.7762C7.20327 9.04451 7.44255 9.23994 7.70268 9.21269Z" fill="#A3A3A3"/>
<path opacity="0.1" d="M8.30638 10.7292C8.56651 10.7019 8.74898 10.4623 8.71395 10.194C8.67891 9.92571 8.43963 9.73028 8.1795 9.75753C7.91937 9.78477 7.7369 10.0244 7.77193 10.2927C7.80697 10.561 8.04625 10.7564 8.30638 10.7292Z" fill="#A3A3A3"/>
<path opacity="0.1" d="M14.6038 5.04154C14.7639 4.93479 14.7476 4.6726 14.5675 4.45592C14.3873 4.23925 14.1115 4.15013 13.9514 4.25688C13.7913 4.36363 13.8076 4.62582 13.9877 4.84249C14.1679 5.05917 14.4437 5.14828 14.6038 5.04154Z" fill="#A3A3A3"/>
<path opacity="0.1" d="M13.3522 3.98231C13.476 3.84209 13.3845 3.59261 13.1479 3.42507C12.9113 3.25753 12.6191 3.23538 12.4953 3.3756C12.3715 3.51582 12.463 3.7653 12.6996 3.93284C12.9362 4.10038 13.2284 4.12253 13.3522 3.98231Z" fill="#A3A3A3"/>
<path opacity="0.1" d="M9.96651 3.9889C10.2661 3.95753 10.4902 3.78817 10.467 3.61063C10.4438 3.4331 10.1822 3.31461 9.88256 3.34599C9.58296 3.37737 9.35888 3.54672 9.38206 3.72426C9.40525 3.90179 9.66691 4.02028 9.96651 3.9889Z" fill="#A3A3A3"/>
<path opacity="0.1" d="M11.8939 3.44172C11.9008 3.26308 11.6956 3.11177 11.4357 3.10376C11.1758 3.09575 10.9595 3.23408 10.9526 3.41272C10.9457 3.59136 11.1509 3.74267 11.4109 3.75067C11.6708 3.75868 11.8871 3.62036 11.8939 3.44172Z" fill="#A3A3A3"/>
<path d="M15.1128 18.2926C14.9534 18.401 14.7531 18.4962 14.5928 18.4464C14.5757 18.4411 14.5576 18.4393 14.5396 18.4411C14.5217 18.4429 14.5044 18.4482 14.489 18.4566C14.4375 18.4888 14.4072 18.5635 14.4072 18.6763V18.6931L14.3933 18.7041C14.3541 18.7356 13.4122 19.4708 12.6968 19.2855L12.6763 19.2797L12.6665 19.2614C12.6569 19.249 12.6422 19.2406 12.6256 19.2379C12.588 19.2306 12.5014 19.2379 12.3378 19.3639L12.3313 19.3683H12.3231C11.8281 19.4825 11.3061 19.4606 10.8253 19.3053C10.6872 19.3012 10.5492 19.3165 10.4165 19.3507C10.4083 19.3507 9.66016 19.5264 9.00443 18.6558C8.99871 18.6477 8.88424 18.491 8.57355 18.5826H8.55556C8.34365 18.5499 8.1426 18.4751 7.96716 18.3637C7.79173 18.2523 7.64636 18.1072 7.54172 17.9389L7.53518 17.9287V17.9177C7.53518 17.8774 7.51638 17.7522 7.45342 17.7141C7.44099 17.7077 7.42689 17.7043 7.41254 17.7043C7.39819 17.7043 7.38409 17.7077 7.37166 17.7141H7.35939C7.33977 17.7141 6.88436 17.7405 6.57939 17.4945C6.49585 17.4252 6.42892 17.3415 6.38267 17.2483C6.33643 17.1552 6.31184 17.0546 6.3104 16.9526C6.31124 16.9352 6.30796 16.9179 6.30077 16.9017C6.29358 16.8856 6.28265 16.871 6.2687 16.8589C6.22863 16.8245 6.13788 16.7857 5.93593 16.8164C5.90404 16.8164 5.28184 16.8076 4.66045 15.8374L4.65473 15.8198L4.63674 15.6507C4.64819 15.568 4.66127 15.3329 4.57951 15.2355L4.33422 14.9639C4.32287 14.9498 4.30804 14.9383 4.29089 14.9302C4.23039 14.9529 3.80032 15.0766 3.22309 14.2829C3.21655 14.2741 2.46843 13.2914 3.24434 12.6844C3.40133 12.587 3.65724 12.4091 3.68831 12.3359L3.69321 12.3241L3.70466 12.3176C3.71284 12.3124 4.56561 11.8255 5.29083 12.5197V12.5233V12.5277C5.43786 12.7512 5.57106 12.9817 5.68983 13.2182V13.227L5.72335 13.432C5.72335 13.4386 5.70291 13.6078 6.0136 13.6729C6.04794 13.6803 6.82631 13.8611 6.98002 14.3393L7.08795 14.5875C7.08795 14.5875 7.18851 14.8313 7.42072 14.9067L7.43625 14.9119L7.44606 14.9251C7.45342 14.9353 7.51801 15.0364 7.4894 15.3014C7.46806 15.4056 7.48986 15.5131 7.55072 15.6038C7.58482 15.645 7.6282 15.6794 7.67806 15.7046C7.72792 15.7298 7.78314 15.7454 7.84015 15.7503C7.9534 15.742 8.06608 15.7715 8.15657 15.833C8.32009 15.9399 8.42965 16.134 8.48361 16.41C8.51059 16.4393 8.66185 16.5762 9.08047 16.5111H9.09192L9.10418 16.5155C9.12462 16.5221 9.59966 16.6941 9.67651 17.2711C9.67651 17.2777 9.71739 17.4696 10.0722 17.4608C10.0829 17.4608 10.4884 17.4022 10.7713 17.9001C10.7868 17.9082 10.8531 17.9096 10.979 17.8218C10.979 17.8218 11.4017 17.5084 12.0329 17.9909C12.129 17.936 12.1996 17.8517 12.2316 17.7537L12.2356 17.7442C12.3143 17.6261 12.4342 17.5345 12.5768 17.4836C12.7194 17.4326 12.8768 17.4251 13.0246 17.4623C13.095 17.4542 13.6534 17.3766 13.6607 16.9973C13.6427 16.8759 13.6788 16.753 13.7613 16.6553C13.8668 16.5382 14.0426 16.4774 14.2821 16.4752C14.2821 16.4752 14.5274 16.4349 14.5994 16.2943C14.6159 16.2536 14.6215 16.21 14.6157 16.167C14.6099 16.124 14.5928 16.0828 14.5658 16.0468C14.5128 15.9666 14.4967 15.871 14.5209 15.7803C14.5593 15.65 14.6844 15.5431 14.8953 15.4618H14.9133C14.9133 15.4618 15.018 15.4618 15.0466 15.4061C15.0638 15.3732 15.0679 15.2897 14.9092 15.1015C14.9011 15.0927 14.6918 14.8533 14.7384 14.3144C14.7384 14.2565 14.7228 14.0822 14.6378 14.0046C14.6239 13.9912 14.6069 13.9805 14.588 13.9735C14.5691 13.9664 14.5487 13.963 14.5282 13.9636C14.5143 13.9636 13.6894 13.8626 13.7262 13.0403V13.0286L13.7327 13.0198C13.7327 13.0198 13.9575 12.7122 13.8962 12.4889C13.8869 12.4556 13.8702 12.4244 13.8472 12.3969C13.8242 12.3695 13.7952 12.3465 13.7621 12.3293C13.691 12.3124 13.1808 12.1777 13.1775 11.731C13.1775 11.7252 13.2012 11.3818 13.0598 11.2309C13.0439 11.2126 13.0239 11.1974 13.0011 11.1863C12.9783 11.1752 12.9532 11.1685 12.9273 11.1665C12.911 11.1665 12.3992 11.1665 12.05 10.4921C12.0353 10.4694 11.6412 9.85798 11.8865 9.58193C11.8914 9.5509 11.8826 9.51939 11.862 9.49406C11.8285 9.45305 11.7459 9.40253 11.5399 9.39301C11.4867 9.39814 11.2128 9.38496 10.7509 8.67102C10.6312 8.47974 10.5841 8.25886 10.6165 8.04155C10.649 7.82423 10.7592 7.6222 10.9307 7.46576C10.9397 7.45698 11.8996 6.5058 12.9944 7.24609C13.228 7.40205 13.4153 7.60685 13.5402 7.84259C13.665 8.07834 13.7236 8.33787 13.7106 8.59853V8.60512L13.7024 8.61538C13.7024 8.61538 13.6558 8.67395 13.6787 8.71569C13.691 8.73839 13.7351 8.7772 13.8946 8.78892C13.9248 8.78892 14.0916 8.83212 14.525 9.37471L14.5438 9.3974L14.5274 9.42084C14.4751 9.49406 14.417 9.6244 14.4457 9.66394C14.4579 9.68005 14.4972 9.68371 14.5519 9.67492H14.5634C14.5683 9.67492 15.0327 9.71666 15.0654 10.3896V10.4006L15.0589 10.4101C15.0033 10.5009 14.9313 10.6722 14.9771 10.7447C14.982 10.7528 14.9975 10.7784 15.0589 10.7835L15.0769 10.7887C15.0908 10.7952 15.4153 10.9585 15.5355 11.5019C15.5355 11.5194 15.5854 11.8621 15.4693 12.0605C15.4889 12.1191 15.5919 12.3674 16.022 12.5973L16.0318 12.6046C16.1462 12.7194 16.2147 12.8651 16.2264 13.0186C16.2381 13.1722 16.1924 13.3248 16.0964 13.4525C16.0441 13.5123 16.0198 13.5879 16.0286 13.6634C16.0425 13.7711 16.1234 13.8794 16.2681 13.9856C16.3458 14.001 16.7006 14.1057 16.8086 14.7669C16.8135 14.7976 16.9083 15.494 16.502 15.5943C16.4712 15.6446 16.455 15.701 16.455 15.7583C16.455 15.8157 16.4712 15.8721 16.502 15.9224L16.5101 15.9355V15.9502C16.4881 16.0769 16.2828 17.1774 15.843 17.1386C15.8329 17.1407 15.8234 17.1448 15.8152 17.1504C15.807 17.1561 15.8003 17.1633 15.7955 17.1716C15.7841 17.1957 15.7955 17.236 15.8315 17.285L15.8413 17.299V17.3143C15.8413 17.3348 15.7489 17.8203 15.4006 18.0561L15.3924 18.0612C15.3074 18.1459 15.2138 18.2234 15.1128 18.2926Z" fill="#A3A3A3"/>
<path d="M14.423 18.3932L14.4336 18.3867C14.4606 18.3723 14.4907 18.3633 14.5219 18.3604C14.5531 18.3575 14.5847 18.3607 14.6143 18.3698C14.8302 18.4372 15.203 18.1252 15.3281 17.9993H15.3338C15.6298 17.7994 15.7287 17.3974 15.7426 17.3154C15.7222 17.2906 15.7084 17.2619 15.7025 17.2315C15.6965 17.2011 15.6985 17.1699 15.7083 17.1404C15.719 17.1196 15.7353 17.1015 15.7557 17.0877C15.7761 17.0739 15.8 17.0649 15.8252 17.0613H15.8375C16.1416 17.0979 16.355 16.2859 16.4155 15.9512C16.3803 15.8864 16.3638 15.8147 16.3675 15.7427C16.3712 15.6707 16.3951 15.6006 16.4368 15.539L16.4458 15.5258H16.463C16.8153 15.4577 16.723 14.7877 16.7221 14.7811C16.6142 14.1221 16.2545 14.0723 16.2504 14.0723H16.2373L16.2267 14.0643C16.0541 13.9405 15.9585 13.8102 15.9421 13.6754C15.9295 13.5804 15.9588 13.4848 16.0239 13.4089C16.1075 13.2984 16.1478 13.1663 16.1385 13.0331C16.1292 12.8999 16.0707 12.7733 15.9724 12.673C15.4475 12.3904 15.3796 12.0799 15.3772 12.0667V12.0521L15.3853 12.0396C15.4973 11.8668 15.4499 11.5271 15.4499 11.5197C15.3485 11.0628 15.0934 10.8988 15.0477 10.8732C15.0174 10.8713 14.9882 10.8628 14.9625 10.8483C14.9368 10.8339 14.9155 10.814 14.9005 10.7904C14.8228 10.6638 14.9446 10.4412 14.9765 10.3862C14.9455 9.8334 14.6143 9.77189 14.5677 9.76604C14.5337 9.77584 14.4973 9.77642 14.4629 9.76769C14.4286 9.75895 14.3979 9.74131 14.3748 9.71698C14.3077 9.62911 14.3944 9.47241 14.4353 9.40651C14.0412 8.91591 13.8907 8.8793 13.8891 8.87857C13.7329 8.86832 13.6365 8.82877 13.5989 8.75775C13.5865 8.72935 13.5821 8.69868 13.5861 8.66842C13.5901 8.63816 13.6023 8.60924 13.6217 8.58421C13.6322 8.33982 13.5763 8.09682 13.4588 7.87605C13.3413 7.65527 13.1658 7.46333 12.9472 7.31671C11.9146 6.61596 11.0078 7.51514 10.9988 7.52393C10.8378 7.66593 10.7336 7.85161 10.7026 8.05209C10.6715 8.25258 10.7153 8.45664 10.8271 8.63253C11.2776 9.33035 11.5237 9.31278 11.5262 9.31205H11.5352C11.7339 9.3201 11.8688 9.36697 11.935 9.45044C11.9542 9.47426 11.9673 9.50153 11.9736 9.53036C11.9798 9.5592 11.9789 9.58889 11.971 9.61739L11.9628 9.6313C11.747 9.86049 12.1263 10.4521 12.1263 10.458C12.4534 11.0841 12.9186 11.0855 12.9227 11.0855C12.9617 11.0885 12.9997 11.0985 13.0343 11.115C13.0688 11.1314 13.0993 11.1541 13.1238 11.1814C13.2873 11.3586 13.2653 11.724 13.2644 11.7394C13.2644 12.1451 13.7763 12.252 13.7812 12.252L13.7951 12.2571C13.8411 12.2804 13.8812 12.3119 13.913 12.3497C13.9448 12.3875 13.9675 12.4308 13.9799 12.4768C14.0477 12.714 13.8539 13.0062 13.8163 13.0626C13.7902 13.7948 14.4982 13.8827 14.5285 13.8856C14.5608 13.8858 14.5928 13.8918 14.6225 13.9034C14.6521 13.915 14.6788 13.9319 14.701 13.953C14.831 14.0731 14.8285 14.3191 14.8285 14.3271C14.7844 14.8353 14.9765 15.0542 14.9782 15.0594C15.1262 15.2344 15.1752 15.3625 15.1286 15.4518C15.1076 15.4826 15.078 15.5079 15.0427 15.5253C15.0075 15.5426 14.9677 15.5514 14.9275 15.5507C14.7468 15.6239 14.6397 15.7096 14.6086 15.8143C14.5897 15.8832 14.6017 15.9561 14.6421 16.0171C14.6771 16.0646 14.699 16.1189 14.7058 16.1754C14.7126 16.232 14.7043 16.2892 14.6814 16.3422C14.5906 16.5202 14.3077 16.5619 14.2955 16.5663C14.0747 16.5663 13.9218 16.6198 13.8327 16.7186C13.7644 16.801 13.735 16.9041 13.7509 17.0057C13.7428 17.4845 13.0617 17.5519 13.0331 17.5548H13.0183C12.5515 17.4538 12.3454 17.7525 12.3193 17.7935C12.2751 17.9173 12.1809 18.0217 12.0552 18.0864L12.0282 18.0996L12.0037 18.0798C11.4199 17.6178 11.0536 17.8836 11.0381 17.8953C10.9247 17.972 10.834 18.0034 10.7658 17.9898C10.7522 17.9877 10.7392 17.9832 10.7275 17.9765C10.7159 17.9698 10.7058 17.9612 10.698 17.951C10.4469 17.5036 10.1011 17.5482 10.0872 17.5504C9.63833 17.5614 9.58846 17.2883 9.58846 17.2861C9.52223 16.8021 9.15676 16.6322 9.08644 16.6037C8.56399 16.682 8.40864 16.4653 8.40292 16.4572L8.39637 16.4418C8.34814 16.1848 8.25084 16.0025 8.10857 15.9124C8.03601 15.8609 7.94403 15.8365 7.85184 15.8443H7.83713C7.76634 15.8382 7.69777 15.8189 7.63582 15.7876C7.57387 15.7563 7.5199 15.7138 7.47738 15.6627C7.40139 15.5536 7.37396 15.423 7.40052 15.2966C7.41822 15.1938 7.40984 15.0886 7.37599 14.9891C7.11354 14.8939 7.00807 14.6354 7.00316 14.623L6.89442 14.3718C6.75461 13.9383 6.00485 13.764 5.99504 13.7626C5.63611 13.6894 5.62875 13.477 5.63121 13.4338L5.59932 13.2507C5.48495 13.0206 5.35667 12.7962 5.21504 12.5786C4.69585 12.0843 4.10717 12.2417 3.86352 12.3406C3.80843 12.3629 3.75977 12.3962 3.72126 12.438C3.59154 12.5577 3.44822 12.6649 3.29365 12.758C2.58069 13.3159 3.25931 14.2092 3.28874 14.2473C3.85044 15.0213 4.24208 14.8624 4.24617 14.8609H4.25189C4.31975 14.8412 4.38271 14.9107 4.39497 14.9246L4.64026 15.1963C4.75718 15.3354 4.72202 15.6283 4.71793 15.6708L4.7351 15.8172C5.33278 16.7193 5.91819 16.7333 5.92391 16.7333C6.10951 16.7084 6.25096 16.7333 6.33272 16.8014C6.35622 16.8215 6.37459 16.8459 6.38658 16.8729C6.39858 16.9 6.40391 16.929 6.40222 16.9581C6.40223 17.0476 6.42237 17.1362 6.46142 17.2186C6.50046 17.301 6.55763 17.3755 6.62951 17.4377C6.88706 17.6486 7.2836 17.6398 7.33429 17.6383C7.36078 17.6283 7.38967 17.6244 7.41827 17.6271C7.44687 17.6298 7.47424 17.6389 7.49782 17.6537C7.59675 17.7159 7.61474 17.8682 7.61801 17.9144C7.71647 18.0664 7.85017 18.1979 8.0101 18.2998C8.17003 18.4017 8.35248 18.4718 8.54518 18.5053C8.91965 18.3998 9.06682 18.6093 9.07254 18.618C9.68657 19.433 10.3529 19.2829 10.3807 19.2771C10.5259 19.2395 10.677 19.2234 10.828 19.2295H10.8402C11.3026 19.377 11.8032 19.3999 12.28 19.2954C12.4264 19.1841 12.5474 19.1379 12.6414 19.1599C12.6766 19.1673 12.7078 19.1854 12.7297 19.2112C13.356 19.3576 14.2014 18.7403 14.3151 18.6517C14.3175 18.5258 14.3551 18.4394 14.423 18.3932Z" fill="#A3A3A3"/>
<path d="M3.37305 13.152C3.37762 13.2859 3.39957 13.4188 3.43846 13.5482C3.47451 13.6778 3.52949 13.8026 3.60198 13.9194C3.67758 14.0321 3.77186 14.1338 3.88161 14.2211C3.99218 14.3098 4.11468 14.3858 4.24626 14.4474V14.4554C4.1711 14.4421 4.09786 14.4213 4.02796 14.3932C3.9928 14.3785 3.95846 14.3617 3.9233 14.3456L3.82928 14.2826C3.70717 14.1916 3.60938 14.0773 3.54311 13.948C3.47509 13.8236 3.42614 13.6916 3.39758 13.5555C3.37046 13.4222 3.36031 13.2866 3.36733 13.1513L3.37305 13.152Z" fill="#A3A3A3"/>
<path d="M4.28522 12.4385C4.43267 12.4689 4.57563 12.5146 4.71119 12.5747C4.84936 12.6367 4.97776 12.7147 5.09302 12.8069C5.21344 12.8997 5.30948 13.0152 5.37428 13.1451L5.41598 13.2447C5.42334 13.2799 5.43233 13.3136 5.43805 13.348C5.44944 13.4158 5.4519 13.4846 5.44541 13.553H5.43642C5.40657 13.4227 5.35849 13.2962 5.29334 13.1766C5.2302 13.0583 5.14751 12.9492 5.04805 12.853C4.94237 12.7587 4.82335 12.6772 4.69402 12.6106C4.5653 12.542 4.42812 12.4869 4.28522 12.4466V12.4385Z" fill="#A3A3A3"/>
<path d="M5.73588 13.9507C5.86733 13.9693 5.9958 14.002 6.11852 14.0481C6.24606 14.0956 6.36486 14.16 6.47091 14.2392C6.58221 14.3195 6.66887 14.4238 6.72274 14.5424C6.73336 14.5724 6.74563 14.6024 6.75462 14.6332C6.76362 14.6639 6.76525 14.6954 6.76852 14.7262C6.77377 14.7868 6.77075 14.8478 6.75953 14.9078H6.75053C6.73037 14.7919 6.69326 14.6789 6.64016 14.5717C6.5875 14.4663 6.51442 14.3701 6.42431 14.2876C6.3287 14.2065 6.22013 14.1386 6.10217 14.0862C5.98511 14.0312 5.86101 13.9892 5.7326 13.961L5.73588 13.9507Z" fill="#A3A3A3"/>
<path d="M7.6576 15.9153C7.81526 15.9492 7.96054 16.0188 8.07949 16.1174C8.14464 16.1668 8.19542 16.2297 8.22748 16.3005C8.25797 16.3705 8.26368 16.4472 8.24383 16.5202H8.23484C8.21029 16.4551 8.18051 16.3917 8.14572 16.3305C8.11405 16.2705 8.07512 16.2138 8.02962 16.1614C7.97936 16.1096 7.92194 16.0639 7.85874 16.0252C7.79548 15.9843 7.72716 15.9502 7.65515 15.9234L7.6576 15.9153Z" fill="#A3A3A3"/>
<path d="M8.77447 16.7021C8.93442 16.7219 9.08594 16.7784 9.21435 16.8661C9.28332 16.9101 9.33941 16.9684 9.37787 17.036C9.41574 17.1039 9.42998 17.1804 9.41875 17.2557H9.40976C9.37777 17.1928 9.34117 17.1319 9.3002 17.0733C9.26189 17.0167 9.21724 16.9637 9.16693 16.9152C9.11137 16.868 9.04927 16.8274 8.98215 16.7943C8.91507 16.7599 8.84408 16.7319 8.77039 16.7109L8.77447 16.7021Z" fill="#A3A3A3"/>
<path d="M9.82373 17.6855C9.9795 17.6587 10.1404 17.6698 10.2898 17.7177C10.3707 17.7406 10.4443 17.7808 10.504 17.8349C10.5623 17.8901 10.6015 17.9593 10.6168 18.034H10.6086C10.5577 17.9821 10.5031 17.9332 10.4451 17.8876C10.3901 17.8437 10.3301 17.8052 10.2661 17.7726C10.1983 17.7432 10.1266 17.7218 10.0527 17.7089C9.9784 17.6937 9.90233 17.6868 9.82618 17.6884L9.82373 17.6855Z" fill="#A3A3A3"/>
<path d="M10.9899 18.0516C11.1194 17.9737 11.2706 17.9296 11.4265 17.9242C11.5105 17.9181 11.5949 17.9312 11.6718 17.9623C11.7485 17.9957 11.8127 18.0484 11.8565 18.1139L11.8426 18.1249C11.7754 18.0932 11.7057 18.0657 11.6341 18.0429C11.5667 18.0197 11.4964 18.0034 11.4248 17.9945C11.3515 17.9896 11.2778 17.9935 11.2057 18.0062C11.1319 18.0174 11.0599 18.0368 10.9915 18.0641L10.9899 18.0516Z" fill="#A3A3A3"/>
<path d="M12.333 17.9783C12.4013 17.8534 12.5072 17.7482 12.6388 17.6744C12.7054 17.632 12.7837 17.6066 12.8653 17.6012C12.9484 17.5983 13.0306 17.6183 13.1007 17.6583V17.6664C13.0268 17.667 12.953 17.6724 12.88 17.6825C12.8102 17.6903 12.7418 17.706 12.6764 17.7293C12.6106 17.7565 12.5495 17.792 12.4949 17.8348C12.4373 17.8775 12.3862 17.9267 12.3428 17.9812L12.333 17.9783Z" fill="#A3A3A3"/>
<path d="M14.3401 16.6423C14.2786 16.6579 14.2196 16.6803 14.1643 16.7089C14.1104 16.7353 14.0618 16.7694 14.0204 16.81C13.9839 16.8511 13.9546 16.897 13.9337 16.9461C13.91 16.9983 13.8906 17.0519 13.8757 17.1065H13.8667C13.8369 17.0464 13.8306 16.9791 13.8487 16.9154C13.8697 16.8539 13.9117 16.7998 13.9689 16.7609C14.0748 16.686 14.2037 16.6418 14.3384 16.6342L14.3401 16.6423Z" fill="#A3A3A3"/>
<path d="M15.1872 15.5655C15.1289 15.5867 15.0739 15.6145 15.0236 15.6483C14.9733 15.6796 14.9288 15.7179 14.892 15.7618C14.8604 15.8072 14.8365 15.8566 14.8209 15.9082C14.8026 15.9623 14.7892 16.0177 14.7808 16.0737H14.7718C14.7356 16.0159 14.7221 15.9489 14.7334 15.8833C14.7474 15.8202 14.7831 15.7626 14.8356 15.7186C14.9317 15.6343 15.0544 15.5785 15.1872 15.559V15.5655Z" fill="#A3A3A3"/>
<path d="M15.8772 13.4383C15.9073 13.3624 15.9265 13.2835 15.9344 13.2033C15.9447 13.1245 15.9398 13.0447 15.9197 12.9675C15.8942 12.8949 15.8512 12.8281 15.7938 12.772C15.7323 12.7133 15.6631 12.6614 15.5878 12.6175V12.6094C15.689 12.6171 15.7842 12.656 15.857 12.7194C15.9299 12.7828 15.976 12.8668 15.9876 12.9572C16.0098 13.1246 15.9732 13.2941 15.8829 13.442L15.8772 13.4383Z" fill="#A3A3A3"/>
<path d="M15.2195 11.935C15.2328 11.8377 15.2328 11.7394 15.2195 11.6421C15.2078 11.5458 15.1802 11.4515 15.1378 11.3624C15.0935 11.2766 15.0329 11.1983 14.9587 11.131C14.8823 11.0619 14.7973 11.001 14.7053 10.9494V10.9421C14.8203 10.9586 14.9278 11.004 15.0151 11.0731C15.102 11.1466 15.1662 11.2389 15.2016 11.3411C15.2367 11.4384 15.2555 11.5399 15.2572 11.6421C15.258 11.7408 15.2451 11.8392 15.2187 11.935H15.2195Z" fill="#A3A3A3"/>
<path d="M14.7855 10.5824C14.7765 10.509 14.7593 10.4366 14.734 10.3663C14.7114 10.2964 14.6804 10.2289 14.6416 10.165C14.601 10.1035 14.5554 10.0447 14.5051 9.98924C14.4593 9.93066 14.4029 9.88161 14.3464 9.82083L14.3513 9.81351C14.4352 9.83737 14.5109 9.87996 14.5713 9.93726C14.6293 9.99514 14.6743 10.0625 14.7037 10.1357C14.7684 10.2762 14.7986 10.4275 14.792 10.5794L14.7855 10.5824Z" fill="#A3A3A3"/>
<path d="M14.258 9.58604C14.2245 9.51725 14.1831 9.45173 14.1345 9.39053C14.0872 9.32931 14.0324 9.27306 13.971 9.22285C13.9104 9.17639 13.8449 9.1352 13.7756 9.09983C13.7057 9.06229 13.6337 9.02807 13.5598 8.99732V8.98854C13.6467 8.98023 13.7345 8.99393 13.8132 9.02807C13.893 9.06442 13.9633 9.11559 14.0193 9.17818C14.1344 9.29496 14.2183 9.43369 14.2645 9.58384L14.258 9.58604Z" fill="#A3A3A3"/>
<path d="M13.4193 11.1808C13.4056 11.2781 13.4056 11.3765 13.4193 11.4737C13.4289 11.5702 13.4549 11.6647 13.4961 11.7542C13.5414 11.8397 13.6022 11.9179 13.676 11.9856C13.7521 12.0547 13.8369 12.1156 13.9286 12.1672V12.1745C13.8133 12.1582 13.7057 12.1124 13.6188 12.0427C13.5312 11.97 13.4669 11.8778 13.4323 11.7754C13.3968 11.6782 13.3781 11.5767 13.3767 11.4745C13.3759 11.3758 13.3888 11.2774 13.4152 11.1816L13.4193 11.1808Z" fill="#A3A3A3"/>
<path d="M12.1992 9.47788C12.2078 9.61792 12.2325 9.7568 12.2728 9.89232C12.3116 10.0282 12.3664 10.16 12.4363 10.2855C12.5087 10.4084 12.5956 10.5241 12.6955 10.6304C12.7958 10.7384 12.9072 10.8377 13.0283 10.927L13.0242 10.9336C12.9504 10.905 12.8802 10.8694 12.8149 10.8274C12.7813 10.8062 12.7495 10.7835 12.7168 10.7608L12.6301 10.6824C12.5203 10.5732 12.4328 10.4476 12.3717 10.3112C12.2453 10.048 12.1839 9.76351 12.1918 9.47714L12.1992 9.47788Z" fill="#A3A3A3"/>
<path d="M11.0177 7.81955C11.0262 7.9596 11.0508 8.09848 11.0912 8.23399C11.1299 8.37016 11.1847 8.50222 11.2548 8.62794C11.3275 8.75059 11.4149 8.86574 11.5156 8.97136C11.6154 9.07969 11.7269 9.17902 11.8484 9.26791L11.8434 9.27523C11.7696 9.24649 11.6994 9.21064 11.6341 9.16833C11.6006 9.14783 11.5687 9.12513 11.5368 9.10169L11.4494 9.02408C11.34 8.91434 11.2525 8.7885 11.191 8.6521C11.0649 8.38913 11.0036 8.10492 11.0111 7.81882L11.0177 7.81955Z" fill="#A3A3A3"/>
<path d="M13.3654 8.55393C13.3261 8.41651 13.2713 8.28304 13.2018 8.15559C13.0746 7.89906 12.8813 7.67321 12.6377 7.49658C12.5177 7.40723 12.3884 7.32829 12.2518 7.2608V7.25275C12.3298 7.2685 12.4057 7.29157 12.4782 7.32158C12.5142 7.33695 12.5502 7.35379 12.587 7.37137L12.6876 7.43288C12.8167 7.52327 12.9273 7.63302 13.0146 7.75726C13.1929 7.99746 13.3124 8.26871 13.3654 8.5532V8.55393Z" fill="#A3A3A3"/>
<path d="M14.2129 12.7639C14.1865 12.8518 14.1722 12.9423 14.1704 13.0333C14.1663 13.1238 14.1784 13.2143 14.2064 13.3013C14.2386 13.3846 14.2876 13.4618 14.3511 13.5291C14.4169 13.5989 14.4918 13.6613 14.5743 13.7151V13.7224C14.4656 13.7022 14.3662 13.6532 14.2889 13.5818C14.212 13.5072 14.1604 13.4145 14.1401 13.3145C14.1193 13.2203 14.1154 13.1236 14.1287 13.0282C14.1431 12.9364 14.1706 12.8466 14.2105 12.761L14.2129 12.7639Z" fill="#A3A3A3"/>
<path d="M5.00002 15.1902C5.02165 15.3326 5.06115 15.4724 5.11776 15.6069C5.17165 15.7416 5.24417 15.8698 5.33361 15.9884C5.42587 16.1035 5.53599 16.2063 5.66066 16.2937C5.78431 16.3813 5.91939 16.455 6.06292 16.5134V16.5214C5.98277 16.5095 5.90434 16.4896 5.82908 16.4621C5.79147 16.4482 5.75386 16.4314 5.71625 16.416L5.6116 16.3537C5.47639 16.2636 5.36339 16.1494 5.27965 16.0184C5.19502 15.8915 5.12828 15.7557 5.08097 15.6142C5.0357 15.4749 5.00827 15.3314 4.99921 15.1866L5.00002 15.1902Z" fill="#A3A3A3"/>
<path d="M6.55135 16.7627C6.5827 16.8592 6.62661 16.9521 6.68217 17.0394C6.73337 17.1271 6.80115 17.2061 6.88249 17.273C6.96295 17.3316 7.05759 17.3724 7.15884 17.3924C7.26282 17.4119 7.36948 17.4173 7.47526 17.4085V17.4166C7.3759 17.4665 7.26116 17.4863 7.14821 17.4729C7.02781 17.4539 6.91776 17.3998 6.83506 17.3192C6.75435 17.2421 6.68908 17.1532 6.64211 17.0563C6.59609 16.9625 6.56261 16.8642 6.54236 16.7634L6.55135 16.7627Z" fill="#A3A3A3"/>
<path d="M7.79336 17.6052C7.82486 17.7016 7.86876 17.7945 7.92418 17.8819C7.97519 17.9695 8.04299 18.0483 8.12449 18.1148C8.20458 18.1742 8.29932 18.2156 8.40085 18.2356C8.50455 18.2551 8.61094 18.2606 8.71644 18.2517V18.2598C8.61709 18.3097 8.50235 18.3295 8.3894 18.3162C8.27065 18.296 8.16246 18.2418 8.08116 18.1617C8.00045 18.0846 7.93517 17.9957 7.8882 17.8988C7.84219 17.805 7.80871 17.7067 7.78845 17.6059L7.79336 17.6052Z" fill="#A3A3A3"/>
<path d="M11.0436 19.0548C11.1556 19.1047 11.274 19.1424 11.396 19.1669C11.5132 19.1933 11.6345 19.2022 11.755 19.1932C11.8691 19.1795 11.9787 19.144 12.0763 19.0892C12.1755 19.033 12.2645 18.9637 12.3404 18.8835L12.3486 18.8879C12.3263 18.9396 12.2972 18.9888 12.2619 19.0343C12.2431 19.057 12.2218 19.0783 12.2022 19.101C12.1826 19.1237 12.1531 19.1376 12.1278 19.1559C12.0205 19.2212 11.8937 19.2559 11.764 19.2555C11.6357 19.2569 11.5081 19.2394 11.3862 19.2035C11.2644 19.1675 11.148 19.1183 11.0396 19.057L11.0436 19.0548Z" fill="#A3A3A3"/>
<path d="M12.6243 18.9513C12.7679 18.9716 12.9137 18.9763 13.0585 18.9652C13.2 18.9565 13.3394 18.9294 13.4722 18.8847C13.5997 18.8373 13.717 18.7704 13.8189 18.687C13.9227 18.6024 14.0132 18.5056 14.0878 18.3992H14.096C14.0776 18.4638 14.0501 18.526 14.0143 18.5845C13.9963 18.6137 13.9758 18.6416 13.9562 18.6701C13.9366 18.6987 13.9072 18.7207 13.8818 18.7434C13.7748 18.8366 13.6436 18.9046 13.5 18.9411C13.3584 18.9796 13.2114 18.9998 13.0634 19.0011C12.9149 19.0012 12.767 18.9855 12.6227 18.9542L12.6243 18.9513Z" fill="#A3A3A3"/>
<path d="M15.4842 17.0695C15.4785 17.2024 15.4549 17.3342 15.4139 17.462C15.3725 17.5891 15.3108 17.7102 15.2308 17.8215C15.1523 17.9357 15.0433 18.0306 14.9135 18.0975L14.813 18.1407C14.7762 18.1495 14.741 18.1598 14.7042 18.1671C14.6319 18.1821 14.5577 18.1888 14.4835 18.1869V18.1788C14.6186 18.1439 14.7476 18.0924 14.8669 18.0258C14.984 17.9606 15.0878 17.8779 15.1735 17.7812C15.2575 17.679 15.3247 17.5666 15.373 17.4473C15.4245 17.3253 15.4594 17.1982 15.4769 17.0688L15.4842 17.0695Z" fill="#A3A3A3"/>
<path d="M16.0003 15.6862C16.0494 15.8044 16.0832 15.9273 16.1009 16.0524C16.1179 16.1767 16.1141 16.3025 16.0894 16.4258C16.0677 16.55 16.009 16.6666 15.9194 16.7634C15.8948 16.7861 15.8719 16.8088 15.8466 16.83C15.8212 16.8512 15.7902 16.8659 15.7648 16.882C15.7069 16.9138 15.6445 16.9384 15.5792 16.9552V16.9479C15.684 16.881 15.7772 16.8006 15.8556 16.7092C15.9337 16.6193 15.9919 16.5169 16.0273 16.4075C16.0587 16.2918 16.0708 16.1727 16.0633 16.0538C16.0579 15.9314 16.0362 15.8099 15.9987 15.6921L16.0003 15.6862Z" fill="#A3A3A3"/>
<path d="M16.1305 14.1277C16.2193 14.2258 16.2953 14.3326 16.357 14.4462C16.419 14.5606 16.462 14.6824 16.4845 14.8079C16.5107 14.934 16.4994 15.0641 16.4518 15.185C16.4379 15.2136 16.4248 15.2429 16.4093 15.2707C16.3938 15.2985 16.3709 15.3227 16.3504 15.3439C16.3085 15.3916 16.2602 15.4344 16.2065 15.4713L16.2 15.4655C16.2709 15.3683 16.326 15.2625 16.3635 15.1514C16.4022 15.0406 16.418 14.9245 16.4101 14.8087C16.3968 14.6881 16.3641 14.57 16.3128 14.4579C16.263 14.342 16.1982 14.2317 16.1199 14.1292L16.1305 14.1277Z" fill="#A3A3A3"/>
<path d="M15.2661 15.2495C15.1803 15.1601 15.1067 15.0617 15.047 14.9566C14.9865 14.8499 14.9443 14.7356 14.9219 14.6176C14.8956 14.4992 14.906 14.3766 14.9522 14.2632C14.9661 14.2361 14.9783 14.209 14.9939 14.1834C15.0094 14.1578 15.0307 14.1351 15.0503 14.1102C15.0911 14.0664 15.1378 14.0273 15.1893 13.9937L15.1958 14.0003C15.1273 14.0905 15.0739 14.1892 15.0372 14.2932C15.0001 14.3962 14.9851 14.5045 14.993 14.6125C15.0064 14.7251 15.0381 14.8354 15.0871 14.9398C15.1356 15.0476 15.1979 15.1501 15.2727 15.2451L15.2661 15.2495Z" fill="#A3A3A3"/>
<path d="M9.15717 18.4907C9.24928 18.5985 9.3546 18.6968 9.47114 18.7836C9.58398 18.8694 9.70908 18.9413 9.84315 18.9974C9.97321 19.0471 10.1111 19.0782 10.252 19.0897C10.3942 19.1007 10.5375 19.0945 10.6779 19.0714V19.0794C10.6132 19.1114 10.5443 19.136 10.4727 19.1526C10.4367 19.1607 10.3991 19.1658 10.3623 19.1724H10.2487C10.0938 19.1654 9.94284 19.1261 9.80799 19.0574C9.67226 18.9918 9.54688 18.9103 9.43516 18.8151C9.3247 18.72 9.22651 18.6142 9.14246 18.4995L9.15717 18.4907Z" fill="#A3A3A3"/>
<path opacity="0.1" d="M4.77774 13.9541C5.02294 13.7967 5.03474 13.4355 4.8041 13.1472C4.57346 12.8589 4.18771 12.7527 3.94251 12.91C3.69731 13.0674 3.68551 13.4286 3.91615 13.7169C4.14679 14.0052 4.53254 14.1114 4.77774 13.9541Z" fill="#A3A3A3"/>
<path opacity="0.1" d="M6.10662 15.9414C6.39754 15.87 6.53569 15.4928 6.41519 15.0989C6.29469 14.705 5.96117 14.4435 5.67025 14.5148C5.37933 14.5862 5.24118 14.9634 5.36168 15.3574C5.48217 15.7513 5.81569 16.0128 6.10662 15.9414Z" fill="#A3A3A3"/>
<path opacity="0.1" d="M13.6797 10.6221C13.9478 10.4983 13.9956 10.1036 13.7866 9.7406C13.5776 9.37758 13.1908 9.18367 12.9227 9.30749C12.6546 9.4313 12.6067 9.82596 12.8157 10.189C13.0248 10.552 13.4116 10.7459 13.6797 10.6221Z" fill="#A3A3A3"/>
<path opacity="0.1" d="M12.4505 8.88928C12.7186 8.76546 12.7664 8.3708 12.5574 8.00778C12.3484 7.64476 11.9616 7.45085 11.6935 7.57467C11.4254 7.69849 11.3775 8.09314 11.5866 8.45616C11.7956 8.81918 12.1824 9.01309 12.4505 8.88928Z" fill="#A3A3A3"/>
<path opacity="0.1" d="M7.7768 17.0384C7.90745 16.9033 7.82851 16.6504 7.60049 16.4736C7.37246 16.2967 7.08169 16.2629 6.95104 16.398C6.82039 16.5332 6.89933 16.7861 7.12736 16.9629C7.35539 17.1397 7.64615 17.1735 7.7768 17.0384Z" fill="#A3A3A3"/>
<path opacity="0.1" d="M14.8981 17.482C15.0736 17.2623 15.0842 16.9998 14.9218 16.8959C14.7595 16.7919 14.4857 16.8857 14.3102 17.1055C14.1347 17.3252 14.1241 17.5876 14.2864 17.6916C14.4488 17.7956 14.7226 17.7017 14.8981 17.482Z" fill="#A3A3A3"/>
<path opacity="0.1" d="M15.5068 16.3407C15.6818 16.1218 15.6925 15.8604 15.5309 15.7567C15.3692 15.6531 15.0963 15.7464 14.9214 15.9652C14.7464 16.184 14.7357 16.4455 14.8973 16.5491C15.059 16.6528 15.3319 16.5595 15.5068 16.3407Z" fill="#A3A3A3"/>
<path opacity="0.1" d="M15.8129 15.1689C16.0098 15.1396 16.1293 14.8998 16.0799 14.6333C16.0305 14.3668 15.8308 14.1745 15.6339 14.2038C15.437 14.2331 15.3175 14.4729 15.3669 14.7394C15.4163 15.0059 15.616 15.1981 15.8129 15.1689Z" fill="#A3A3A3"/>
<path opacity="0.1" d="M15.1193 13.6067C15.3777 13.5683 15.5471 13.3211 15.4976 13.0546C15.4482 12.7881 15.1987 12.6033 14.9403 12.6417C14.682 12.6801 14.5126 12.9273 14.562 13.1938C14.6114 13.4603 14.8609 13.6452 15.1193 13.6067Z" fill="#A3A3A3"/>
<path opacity="0.1" d="M14.4344 12.1187C14.6928 12.0803 14.8622 11.8331 14.8128 11.5666C14.7633 11.3001 14.5138 11.1153 14.2555 11.1537C13.9971 11.1921 13.8277 11.4393 13.8771 11.7058C13.9266 11.9723 14.1761 12.1572 14.4344 12.1187Z" fill="#A3A3A3"/>
<path opacity="0.1" d="M8.96509 17.8631C9.11925 17.7495 9.08892 17.4884 8.89734 17.2797C8.70576 17.071 8.42548 16.9939 8.27132 17.1075C8.11716 17.221 8.14749 17.4822 8.33907 17.6908C8.53065 17.8995 8.81093 17.9766 8.96509 17.8631Z" fill="#A3A3A3"/>
<path opacity="0.1" d="M10.4679 18.6801C10.584 18.5347 10.4792 18.2895 10.2338 18.1323C9.98847 17.9752 9.69545 17.9657 9.57935 18.1111C9.46326 18.2565 9.56804 18.5017 9.81339 18.6589C10.0587 18.816 10.3518 18.8255 10.4679 18.6801Z" fill="#A3A3A3"/>
<path opacity="0.1" d="M12.9348 18.8005C13.2334 18.7573 13.4496 18.5788 13.4177 18.4018C13.3857 18.2249 13.1178 18.1165 12.8191 18.1597C12.5205 18.2029 12.3043 18.3814 12.3363 18.5584C12.3682 18.7353 12.6362 18.8437 12.9348 18.8005Z" fill="#A3A3A3"/>
<path opacity="0.1" d="M11.5424 18.906C11.8025 18.9027 12.011 18.7552 12.0082 18.5765C12.0055 18.3977 11.7924 18.2555 11.5323 18.2587C11.2722 18.262 11.0637 18.4095 11.0664 18.5882C11.0692 18.767 11.2823 18.9092 11.5424 18.906Z" fill="#A3A3A3"/>
<path d="M30.7425 15L27.7939 7.12196H29.5946L32.6558 15H30.7425ZM24.5977 15L27.6588 7.12196H29.4595L26.5109 15H24.5977ZM26.0382 13.5032V11.9051H31.2265V13.5032H26.0382ZM37.7664 15.1351C36.9861 15.1351 36.2958 14.9625 35.6956 14.6174C35.1029 14.2647 34.6339 13.7845 34.2888 13.1768C33.9512 12.5616 33.7823 11.8563 33.7823 11.061C33.7823 10.2657 33.9512 9.56416 34.2888 8.95642C34.6339 8.34118 35.1029 7.861 35.6956 7.51587C36.2958 7.16323 36.9861 6.98691 37.7664 6.98691C38.3366 6.98691 38.858 7.0882 39.3307 7.29078C39.8109 7.48585 40.2236 7.76346 40.5687 8.1236C40.9213 8.48374 41.1914 8.90015 41.379 9.37283L39.6796 9.9468C39.5671 9.6842 39.4133 9.45536 39.2182 9.26029C39.0306 9.06521 38.813 8.91516 38.5654 8.81011C38.3253 8.70507 38.059 8.65255 37.7664 8.65255C37.3537 8.65255 36.9861 8.75384 36.6635 8.95642C36.3408 9.159 36.0895 9.44411 35.9094 9.81175C35.7293 10.1719 35.6393 10.5883 35.6393 11.061C35.6393 11.5337 35.7293 11.9538 35.9094 12.3215C36.097 12.6816 36.3521 12.9667 36.6747 13.1768C37.0048 13.3794 37.38 13.4807 37.8001 13.4807C38.1078 13.4807 38.3816 13.4244 38.6217 13.3118C38.8618 13.1993 39.0681 13.0417 39.2407 12.8392C39.4208 12.6366 39.5746 12.404 39.7021 12.1414L41.4015 12.7154C41.2215 13.1956 40.9551 13.6195 40.6025 13.9871C40.2498 14.3472 39.8334 14.6286 39.3532 14.8312C38.8731 15.0338 38.3441 15.1351 37.7664 15.1351ZM46.9562 15.1351C46.1759 15.1351 45.4857 14.9625 44.8854 14.6174C44.2927 14.2647 43.8238 13.7845 43.4787 13.1768C43.141 12.5616 42.9722 11.8563 42.9722 11.061C42.9722 10.2657 43.141 9.56416 43.4787 8.95642C43.8238 8.34118 44.2927 7.861 44.8854 7.51587C45.4857 7.16323 46.1759 6.98691 46.9562 6.98691C47.5265 6.98691 48.0479 7.0882 48.5206 7.29078C49.0008 7.48585 49.4134 7.76346 49.7586 8.1236C50.1112 8.48374 50.3813 8.90015 50.5689 9.37283L48.8695 9.9468C48.7569 9.6842 48.6031 9.45536 48.4081 9.26029C48.2205 9.06521 48.0029 8.91516 47.7553 8.81011C47.5152 8.70507 47.2489 8.65255 46.9562 8.65255C46.5436 8.65255 46.1759 8.75384 45.8533 8.95642C45.5307 9.159 45.2793 9.44411 45.0993 9.81175C44.9192 10.1719 44.8292 10.5883 44.8292 11.061C44.8292 11.5337 44.9192 11.9538 45.0993 12.3215C45.2869 12.6816 45.542 12.9667 45.8646 13.1768C46.1947 13.3794 46.5698 13.4807 46.99 13.4807C47.2976 13.4807 47.5715 13.4244 47.8116 13.3118C48.0517 13.1993 48.258 13.0417 48.4306 12.8392C48.6106 12.6366 48.7644 12.404 48.892 12.1414L50.5914 12.7154C50.4113 13.1956 50.145 13.6195 49.7923 13.9871C49.4397 14.3472 49.0233 14.6286 48.5431 14.8312C48.0629 15.0338 47.534 15.1351 46.9562 15.1351ZM55.7522 15.1463C55.077 15.1463 54.4917 15.0188 53.9965 14.7637C53.5088 14.5086 53.1337 14.1484 52.8711 13.6832C52.6085 13.2106 52.4772 12.6516 52.4772 12.0063H54.2891C54.2891 12.3065 54.3492 12.5653 54.4692 12.7829C54.5893 13.0005 54.7581 13.1693 54.9757 13.2893C55.2008 13.4094 55.4671 13.4694 55.7747 13.4694C56.0748 13.4694 56.3374 13.4094 56.5625 13.2893C56.7876 13.1693 56.9602 13.0005 57.0802 12.7829C57.2003 12.5653 57.2603 12.3065 57.2603 12.0063H59.0722C59.0722 12.6516 58.9372 13.2106 58.6671 13.6832C58.4045 14.1484 58.0218 14.5086 57.5191 14.7637C57.024 15.0188 56.435 15.1463 55.7522 15.1463ZM52.4772 12.0063V7.12196H54.2891V12.0063H52.4772ZM57.2603 12.0063V7.12196H59.0722V12.0063H57.2603ZM70.6251 15L67.6764 7.12196H69.4771L72.5383 15H70.6251ZM64.4802 15L67.5414 7.12196H69.3421L66.3935 15H64.4802ZM65.9208 13.5032V11.9051H71.109V13.5032H65.9208ZM74.4113 15V7.12196H76.2232V15H74.4113ZM75.4917 15V13.3344H79.577V15H75.4917ZM81.5569 15V7.12196H83.3689V15H81.5569ZM89.6136 15.1351C88.8033 15.1351 88.0868 14.9625 87.464 14.6174C86.8488 14.2647 86.3649 13.7845 86.0122 13.1768C85.6596 12.5616 85.4833 11.8563 85.4833 11.061C85.4833 10.2657 85.6596 9.56416 86.0122 8.95642C86.3649 8.34118 86.8488 7.861 87.464 7.51587C88.0868 7.16323 88.8033 6.98691 89.6136 6.98691C90.1163 6.98691 90.5702 7.06194 90.9754 7.212C91.388 7.35455 91.7482 7.55338 92.0558 7.80848C92.3634 8.06358 92.6185 8.35619 92.8211 8.68632L91.3243 9.58666C91.2117 9.40659 91.0617 9.24528 90.8741 9.10273C90.694 8.96017 90.4952 8.85138 90.2776 8.77635C90.06 8.69382 89.8387 8.65255 89.6136 8.65255C89.1709 8.65255 88.777 8.75384 88.4319 8.95642C88.0943 9.159 87.8279 9.44411 87.6328 9.81175C87.4378 10.1719 87.3402 10.5883 87.3402 11.061C87.3402 11.5337 87.434 11.9538 87.6216 12.3215C87.8092 12.6816 88.0793 12.9667 88.4319 13.1768C88.7845 13.3869 89.1934 13.4919 89.6586 13.4919C90.0113 13.4919 90.3226 13.4244 90.5927 13.2893C90.8628 13.1543 91.0767 12.9667 91.2342 12.7266C91.3918 12.4865 91.4706 12.2052 91.4706 11.8825L93.1925 11.5899C93.1925 12.3552 93.0387 13.0042 92.7311 13.5369C92.4234 14.0621 92.0033 14.4598 91.4706 14.7299C90.9379 15 90.3189 15.1351 89.6136 15.1351ZM89.6699 12.0739V10.6783H93.1925V11.7475L92.1796 12.0739H89.6699ZM100.557 15L95.6161 8.11235L97.1017 7.12196L102.009 13.9759L100.557 15ZM95.1997 15V7.12196H97.1017L97.0117 8.7651V15.0113L95.1997 15ZM100.557 15V7.12196H102.369V15H100.557ZM104.917 15V7.12196H106.729V15H104.917ZM106.234 15V13.3344H110.105V15H106.234ZM106.234 11.8375V10.2282H109.509V11.8375H106.234ZM106.234 8.78761V7.12196H110.049V8.78761H106.234ZM114.111 12.3552V10.6896H115.574C115.784 10.6896 115.972 10.6483 116.137 10.5658C116.302 10.4833 116.429 10.3707 116.519 10.2282C116.617 10.0781 116.666 9.91304 116.666 9.73297C116.666 9.45536 116.561 9.22653 116.351 9.04646C116.148 8.86639 115.878 8.77635 115.54 8.77635H114.111V7.12196L115.63 7.11071C116.201 7.10321 116.707 7.212 117.15 7.43709C117.592 7.66217 117.937 7.97354 118.185 8.3712C118.44 8.76885 118.568 9.22277 118.568 9.73297C118.568 10.2432 118.44 10.6971 118.185 11.0947C117.93 11.4924 117.577 11.8038 117.127 12.0289C116.684 12.2464 116.174 12.3552 115.597 12.3552H114.111ZM112.535 15V7.12196H114.347V15H112.535ZM116.812 15L115.034 11.8713L116.396 10.8697L118.883 15H116.812ZM123.613 15.1351C123.23 15.1351 122.863 15.0863 122.51 14.9887C122.165 14.8837 121.85 14.7449 121.565 14.5723C121.287 14.3923 121.058 14.1934 120.878 13.9759C120.698 13.7508 120.586 13.5107 120.541 13.2556L122.33 12.7491C122.412 12.9667 122.555 13.158 122.758 13.3231C122.968 13.4807 123.23 13.5632 123.545 13.5707C123.853 13.5782 124.108 13.5069 124.311 13.3569C124.521 13.2068 124.626 13.0117 124.626 12.7716C124.626 12.5841 124.551 12.419 124.401 12.2765C124.258 12.1339 124.052 12.0251 123.782 11.9501L122.668 11.6687C122.277 11.5712 121.936 11.4174 121.643 11.2073C121.358 10.9972 121.133 10.7421 120.968 10.442C120.811 10.1344 120.732 9.78549 120.732 9.39534C120.732 8.63755 120.983 8.04857 121.486 7.62841C121.989 7.20074 122.698 6.98691 123.613 6.98691C124.116 6.98691 124.555 7.05819 124.93 7.20074C125.305 7.3358 125.624 7.53837 125.886 7.80848C126.156 8.07858 126.37 8.41621 126.528 8.82137L124.75 9.35032C124.69 9.14774 124.558 8.96392 124.356 8.79886C124.161 8.6338 123.906 8.55127 123.59 8.55127C123.275 8.55127 123.028 8.62254 122.848 8.7651C122.675 8.90765 122.589 9.11398 122.589 9.38409C122.589 9.57166 122.66 9.72922 122.803 9.85677C122.945 9.97681 123.14 10.0668 123.388 10.1269L124.502 10.4082C125.14 10.5658 125.635 10.8622 125.988 11.2973C126.348 11.725 126.528 12.2127 126.528 12.7604C126.528 13.2556 126.412 13.6795 126.179 14.0321C125.954 14.3848 125.624 14.6586 125.189 14.8537C124.753 15.0413 124.228 15.1351 123.613 15.1351Z" fill="#A3A3A3"/>
</svg>
