<svg width="98" height="28" viewBox="0 0 98 28" fill="none" xmlns="http://www.w3.org/2000/svg">
<g clip-path="url(#clip0_285_344)">
<path d="M53.9623 19.1528C53.86 18.9733 53.7131 18.8237 53.5359 18.7186C53.7008 18.8388 53.8449 18.9855 53.9623 19.1528Z" fill="#312F2A"/>
<path d="M53.4562 10.1749C48.72 9.83981 47.0663 9.65357 46.5502 9.29042L46.5425 9.28438C46.521 9.26912 46.5006 9.25241 46.4814 9.23439C45.459 8.36965 47.5534 7.36153 49.6064 7.41097C51.4087 7.45437 52.7451 7.57579 53.0264 8.91849H65.1253C63.217 2.00062 58.2269 -0.000244141 49.3099 -0.000244141C40.2094 -0.000244141 34.7047 3.6257 34.7047 9.73543C34.7047 15.0057 38.5578 17.2752 46.4104 17.8246C51.0575 18.1729 52.891 18.3646 53.5414 18.7585H53.5463C53.5524 18.7629 53.5567 18.7673 53.5622 18.7712C53.6587 18.8277 53.7389 18.9086 53.7948 19.0058C53.8648 19.107 53.8963 19.23 53.8837 19.3526C53.871 19.4752 53.8151 19.5892 53.726 19.6738C53.7178 19.6837 53.7075 19.6936 53.6982 19.7035C53.2066 20.2446 51.8216 20.6699 50.4557 20.6374C49.4244 20.6783 48.4076 20.3829 47.5567 19.7952C47.415 19.7223 47.2892 19.6215 47.1869 19.4989C47.0845 19.3762 47.0077 19.2341 46.9609 19.081H34.0444C34.962 25.0842 38.8506 27.9998 50.2651 27.9998C60.98 27.9998 65.4202 24.0101 65.4202 18.5201C65.4202 12.7735 61.2001 10.7243 53.4595 10.1749" fill="#A3A3A3"/>
<path d="M35.334 27.8681H23.364L21.2941 21.2315H14.5994L12.5066 27.867H0.5L11.1729 1.08444H24.9577L35.3345 27.867L35.334 27.8681ZM17.9904 10.5696L17.7316 11.7975L15.607 18.2072H20.352L18.2499 11.8348L17.9904 10.5712V10.5696Z" fill="#A3A3A3"/>
<path d="M85.2197 1.43333V13.2352H78.8576V1.36356H67.2246V28.1461H78.8576V16.2596H85.2197V28.1461H96.8527V1.36356L85.2197 1.43333Z" fill="#A3A3A3"/>
</g>
<defs>
<clipPath id="clip0_285_344">
<rect width="97" height="28" fill="white" transform="translate(0.5)"/>
</clipPath>
</defs>
</svg>
