<svg width="116" height="32" viewBox="0 0 116 32" fill="none" xmlns="http://www.w3.org/2000/svg">
<path d="M18.827 6.75589H0.928833V9.9994H18.827V6.75589Z" fill="#A3A3A3"/>
<path d="M4.98772 11.6212H0.929077V14.8647H7.86174L1.6131 25.2441H5.40811L9.17327 18.9898C10.0903 17.4667 10.1137 15.6347 9.23568 14.0895C8.35766 12.5435 6.76968 11.6212 4.98757 11.6212H4.98772Z" fill="#A3A3A3"/>
<path d="M10.5203 14.0895C9.64229 15.6347 9.66505 17.4667 10.5821 18.9898L14.3473 25.2441H18.1423L11.8942 14.8647H18.8271V11.6212H14.7677C12.9857 11.6212 11.3976 12.5437 10.5203 14.0895Z" fill="#A3A3A3"/>
<path d="M28.7415 17.1736C28.7415 15.9549 29.08 14.9325 29.757 14.1065C30.6101 13.0503 31.795 12.5222 33.3116 12.5222C34.273 12.5222 35.099 12.7253 35.7896 13.1315C36.5344 13.5784 36.9068 14.1065 36.9068 14.7159C36.9068 14.8106 36.8933 14.9122 36.8662 15.0205C36.7172 15.4945 36.3381 15.7315 35.7287 15.7315C35.4579 15.7179 35.2345 15.657 35.0584 15.5486C34.8282 15.3861 34.6657 15.007 34.5709 14.4112C34.5439 14.1674 34.5168 13.9846 34.4897 13.8628C34.3407 13.3076 33.948 13.03 33.3116 13.03C33.1627 13.03 33.0069 13.0435 32.8444 13.0706C31.7476 13.3279 31.1992 14.6955 31.1992 17.1736C31.2127 19.7735 32.0184 21.087 33.6163 21.1141C33.9007 21.1141 34.1715 21.0802 34.4288 21.0125C35.4173 20.7823 36.1214 20.2204 36.5412 19.3266L37.0693 19.4688C36.9474 19.7938 36.7714 20.0917 36.5412 20.3625C35.7964 21.2563 34.7199 21.7031 33.3116 21.7031C32.3773 21.7031 31.5513 21.5068 30.8336 21.1141C29.4388 20.3422 28.7415 19.0287 28.7415 17.1736ZM40.7149 17.1127C40.7149 18.0741 40.7826 18.8459 40.918 19.4282C41.1888 20.5927 41.832 21.175 42.8476 21.175C43.1861 21.175 43.4908 21.1073 43.7616 20.9719C44.5876 20.525 45.0006 19.2115 45.0006 17.0314C45.0006 16.1106 44.9329 15.3658 44.7975 14.7971C44.5267 13.6326 43.8767 13.0503 42.8476 13.0503C42.4549 13.0503 42.1096 13.1383 41.8117 13.3143C41.0805 13.7883 40.7149 15.0544 40.7149 17.1127ZM42.9288 12.5222C44.0121 12.5222 44.9465 12.8133 45.7319 13.3956C46.8693 14.2351 47.4381 15.4471 47.4381 17.0314C47.4381 18.2095 47.086 19.2251 46.3818 20.0782C45.4881 21.1615 44.2897 21.7031 42.7867 21.7031C41.6898 21.7031 40.7352 21.3781 39.9227 20.7282C38.8123 19.8344 38.2571 18.6022 38.2571 17.0314C38.2571 15.8939 38.5957 14.919 39.2727 14.1065C40.1664 13.0503 41.3851 12.5222 42.9288 12.5222ZM54.6788 9.86134H53.1757V15.5283H54.5163C54.5976 15.5283 54.6788 15.5283 54.7601 15.5283C56.209 15.42 56.9334 14.4653 56.9334 12.6644C56.9334 12.4748 56.9266 12.292 56.9131 12.116C56.7506 10.6129 56.0058 9.86134 54.6788 9.86134ZM55.2069 21.5H49.0524V20.9516H50.6774V9.86134H49.0524V9.31292H55.5928C56.5001 9.31292 57.2719 9.46865 57.9084 9.78009C59.0458 10.3353 59.6146 11.2561 59.6146 12.5425C59.6146 13.0977 59.5062 13.6055 59.2896 14.0659C58.6396 15.4471 57.1704 16.1377 54.8819 16.1377H53.1757V20.9516H54.6585C54.9429 20.9787 55.1257 21.1615 55.2069 21.5ZM65.2913 20.9719C65.359 20.9719 65.42 20.9787 65.4741 20.9922C65.6772 21.0193 65.7788 21.1886 65.7788 21.5H60.904V20.9719C61.1748 20.9719 61.3914 20.9516 61.5539 20.911C62.0008 20.8026 62.2242 20.4573 62.2242 19.8751V13.3143H60.904V12.8066H64.4585V20.9719H65.2913ZM64.6616 10.0441C64.6616 10.2743 64.6075 10.491 64.4992 10.6941C64.2419 11.1681 63.8356 11.405 63.2804 11.405C63.0638 11.405 62.8539 11.3576 62.6508 11.2629C62.1498 11.0191 61.8992 10.6129 61.8992 10.0441C61.8992 9.82749 61.9534 9.61083 62.0617 9.39417C62.319 8.89315 62.7253 8.64263 63.2804 8.64263C63.4971 8.64263 63.707 8.6968 63.9101 8.80513C64.4111 9.07595 64.6616 9.48896 64.6616 10.0441ZM67.0276 13.3956V12.8675H68.4291V10.9379L70.6634 10.5113V12.8675H73.507V13.3956H70.6634V19.5501C70.6634 19.6855 70.6701 19.8209 70.6837 19.9563C70.7785 20.7282 71.1102 21.1141 71.679 21.1141C72.3425 21.1005 72.8232 20.4912 73.1211 19.286L73.6695 19.3673C73.5883 19.787 73.4799 20.1459 73.3445 20.4438C72.9654 21.2969 72.2409 21.7234 71.1712 21.7234C69.465 21.6557 68.5509 20.6401 68.4291 18.6767V13.3956H67.0276ZM74.8574 17.1736C74.8574 15.9549 75.1959 14.9325 75.8729 14.1065C76.726 13.0503 77.9109 12.5222 79.4275 12.5222C80.3889 12.5222 81.2149 12.7253 81.9055 13.1315C82.6503 13.5784 83.0227 14.1065 83.0227 14.7159C83.0227 14.8106 83.0092 14.9122 82.9821 15.0205C82.8331 15.4945 82.454 15.7315 81.8446 15.7315C81.5738 15.7179 81.3504 15.657 81.1743 15.5486C80.9441 15.3861 80.7816 15.007 80.6868 14.4112C80.6598 14.1674 80.6327 13.9846 80.6056 13.8628C80.4566 13.3076 80.0639 13.03 79.4275 13.03C79.2786 13.03 79.1228 13.0435 78.9603 13.0706C77.8635 13.3279 77.3151 14.6955 77.3151 17.1736C77.3286 19.7735 78.1343 21.087 79.7322 21.1141C80.0166 21.1141 80.2874 21.0802 80.5447 21.0125C81.5332 20.7823 82.2373 20.2204 82.6571 19.3266L83.1852 19.4688C83.0633 19.7938 82.8873 20.0917 82.6571 20.3625C81.9123 21.2563 80.8358 21.7031 79.4275 21.7031C78.4932 21.7031 77.6672 21.5068 76.9495 21.1141C75.5547 20.3422 74.8574 19.0287 74.8574 17.1736ZM88.3948 20.9719C88.476 20.9719 88.5573 20.9787 88.6385 20.9922C88.8145 21.0328 88.9026 21.2021 88.9026 21.5H84.1902V20.9719C84.4204 20.9719 84.6168 20.9584 84.7793 20.9313C85.2532 20.8365 85.4902 20.4844 85.4902 19.8751V8.82544H84.1902V8.29733H87.7245V14.4924C87.8328 14.2351 87.975 13.9846 88.151 13.7409C88.801 12.9284 89.6744 12.5222 90.7712 12.5222C91.1639 12.5222 91.5295 12.5899 91.8681 12.7253C92.9649 13.1857 93.5133 14.2216 93.5133 15.833V20.9719H94.2852C94.3664 20.9719 94.4477 20.9787 94.5289 20.9922C94.705 21.0328 94.793 21.2021 94.793 21.5H90.2838V20.9719C90.5952 20.9719 90.8254 20.938 90.9744 20.8703C91.1775 20.762 91.279 20.4302 91.279 19.8751V15.5893C91.279 15.3049 91.252 15.0476 91.1978 14.8174C90.9811 13.9779 90.4801 13.5581 89.6947 13.5581C89.4239 13.5581 89.1531 13.6326 88.8822 13.7815C88.1104 14.2284 87.7245 15.0544 87.7245 16.2596V20.9719H88.3948ZM98.8854 20.3016C98.8854 20.5183 98.8312 20.7214 98.7229 20.911C98.4792 21.3714 98.0932 21.6016 97.5651 21.6016C97.3756 21.6016 97.186 21.5609 96.9964 21.4797C96.5089 21.2495 96.2652 20.8568 96.2652 20.3016C96.2652 20.0985 96.3126 19.9021 96.4074 19.7126C96.6376 19.2251 97.0235 18.9813 97.5651 18.9813C97.7682 18.9813 97.9714 19.0355 98.1745 19.1438C98.6484 19.3876 98.8854 19.7735 98.8854 20.3016ZM109.581 21.5H108.666C108.333 21.5 108.042 21.4445 107.792 21.3336C107.543 21.2227 107.348 21.0424 107.21 20.7928C107.071 20.5432 107.002 20.2104 107.002 19.7945V15.385L106.96 14.9066C106.96 14.1579 106.773 13.5755 106.399 13.1595C106.038 12.7435 105.449 12.5355 104.631 12.5355C103.882 12.5355 103.244 12.7227 102.717 13.0971C102.19 13.4715 101.795 13.936 101.532 14.4906L100.575 13.5339C100.783 13.1872 101.081 12.8406 101.469 12.4939C101.857 12.1473 102.329 11.863 102.884 11.6411C103.438 11.4193 104.069 11.3084 104.776 11.3084C105.941 11.3084 106.822 11.6273 107.418 12.2651C108.014 12.8891 108.312 13.7627 108.312 14.8858V19.5657C108.312 19.8291 108.368 20.0163 108.479 20.1272C108.603 20.2243 108.784 20.2728 109.019 20.2728H109.581V21.5ZM103.383 21.708C102.565 21.708 101.927 21.5069 101.469 21.1048C101.026 20.6888 100.804 20.148 100.804 19.4825C100.804 18.8308 101.026 18.29 101.469 17.8601C101.913 17.4164 102.481 17.0351 103.175 16.7162L107.21 14.8858L107.397 15.8218L103.757 17.5481C103.216 17.7977 102.814 18.0612 102.551 18.3385C102.301 18.602 102.176 18.9209 102.176 19.2953C102.176 19.7113 102.315 20.0302 102.592 20.252C102.884 20.46 103.279 20.564 103.778 20.564C104.236 20.564 104.658 20.4878 105.047 20.3352C105.449 20.1688 105.795 19.9539 106.087 19.6905C106.378 19.4131 106.6 19.115 106.752 18.7961C106.919 18.4633 107.002 18.1236 107.002 17.7769L107.043 18.5257C106.96 19.0249 106.759 19.5241 106.44 20.0233C106.135 20.5086 105.719 20.9107 105.192 21.2296C104.679 21.5485 104.076 21.708 103.383 21.708ZM113.596 9.72761H112.223V7.56448H113.596V9.72761ZM113.596 21.5H112.223V11.5163H113.596V21.5Z" fill="#A3A3A3"/>
</svg>
