<svg width="108" height="34" viewBox="0 0 108 34" fill="none" xmlns="http://www.w3.org/2000/svg">
<path d="M21.8415 11.0814C21.8156 11.0554 21.8156 11.0814 21.8415 11.0814C21.8156 11.0554 21.8156 11.0293 21.7894 11.0293L11.6876 5.24933H11.6616H11.6095H11.5835H11.5314L1.42953 11.0293C1.42953 11.0293 1.42953 11.0552 1.40356 11.0552L1.37759 11.0812C1.37759 11.1072 1.35162 11.1333 1.35162 11.1593L1.35144 16.9392V22.7191C1.35144 22.7451 1.35144 22.7712 1.37741 22.7972L1.40338 22.8232L1.42935 22.8492L11.5312 28.6291C11.5572 28.6291 11.5833 28.6551 11.6093 28.6551C11.6353 28.6551 11.6614 28.6551 11.6874 28.6291L21.7892 22.8492L21.8152 22.8232C21.8152 22.8232 21.8412 22.8232 21.8412 22.7972C21.8412 22.7712 21.8671 22.7451 21.8671 22.7191L21.8675 16.9392V11.1593C21.8413 11.1333 21.8413 11.1072 21.8413 11.0812L21.8415 11.0814ZM17.3895 20.1158L16.921 19.8553L21.5814 17.1736V22.511L17.3895 20.1158ZM13.7965 23.8388L11.87 22.7193L13.8487 21.5999L16.5303 20.0636V25.4009L13.7965 23.8388ZM1.76806 16.9393L4.86636 15.169L6.40242 14.2838V19.6211L4.86636 18.736L1.76806 16.9393ZM6.68881 19.621V14.2576L8.22487 15.1428L11.3491 16.9393L8.22487 18.7096L6.68881 19.621ZM11.7397 11.3677L16.4001 14.0493L11.7397 16.705V11.3677ZM11.4793 16.705L8.35506 14.9085L6.81901 14.0233L11.4794 11.3416L11.4793 16.705ZM11.8699 16.9393L16.5303 14.2576V19.5949L13.7965 18.0327L11.8699 16.9393ZM16.7907 14.2576L21.2948 16.8352L21.451 16.9133L16.7906 19.6209L16.7907 14.2576ZM16.5303 13.815L11.8699 11.1593L16.5303 8.47765V13.815ZM6.81895 19.8292L9.9953 18.0068L11.4794 17.1476V22.4849L9.81314 21.5217L6.81895 19.8292ZM11.7397 22.5109V17.1736L15.6972 19.4387L16.4002 19.8291L15.0724 20.5841L11.7397 22.5109ZM21.5812 16.705L16.9208 14.0493L21.5812 11.3676V16.705ZM16.7906 13.815V8.47769L21.451 11.1594L16.7906 13.815ZM11.3492 11.1593L6.68877 13.815V8.47769L9.813 10.2742L11.3492 11.1593ZM6.29823 14.0493L4.76217 14.9344L1.63794 16.731L1.63776 11.3676L6.29823 14.0493ZM1.63784 22.5109V17.1736L3.12197 18.0327L6.29832 19.8552L3.27814 21.5476L1.63784 22.5109ZM6.68877 25.4008V20.0635L8.35505 21.0268L11.3491 22.7192L8.22483 24.5157L6.68877 25.4008ZM11.7397 10.925V5.58769L16.4001 8.26936L11.7397 10.925ZM11.4793 5.58769V10.925L9.9432 10.0398L6.84491 8.2695L11.4793 5.58769ZM6.42834 13.815L1.76795 11.1593L6.42834 8.4776V13.815ZM4.76205 21.0008L6.42834 20.0375V25.3748L1.76795 22.7192L4.76205 21.0008ZM9.91712 23.8387L11.4532 22.9535V28.2908L6.81882 25.6351L9.91712 23.8387ZM11.7396 28.2908V22.9535L15.4106 25.0624L16.4 25.6352L11.7396 28.2908ZM16.7905 25.4009V20.0636L20.9822 22.4589L21.4508 22.7193L16.7905 25.4009Z" fill="#A3A3A3"/>
<path d="M11.6021 15.71L12.659 16.3202V17.5406L11.6021 18.1508L10.5452 17.5406V16.3202L11.6021 15.71Z" fill="#A3A3A3"/>
<path d="M11.6021 21.4631L12.659 22.0733V23.2938L11.6021 23.904L10.5452 23.2938V22.0733L11.6021 21.4631Z" fill="#A3A3A3"/>
<path d="M11.6021 27.4258L12.659 28.0361V29.2565L11.6021 29.8667L10.5452 29.2565V28.0361L11.6021 27.4258Z" fill="#A3A3A3"/>
<path d="M11.6021 9.92166L12.659 10.5319V11.7523L11.6021 12.3625L10.5452 11.7523V10.5319L11.6021 9.92166Z" fill="#A3A3A3"/>
<path d="M11.6021 4.13333L12.659 4.74354V5.96397L11.6021 6.57418L10.5452 5.96397V4.74354L11.6021 4.13333Z" fill="#A3A3A3"/>
<path d="M1.49063 15.71L2.54754 16.3202V17.5406L1.49063 18.1508L0.433708 17.5406V16.3202L1.49063 15.71Z" fill="#A3A3A3"/>
<path d="M21.7147 15.71L20.6578 16.3202V17.5406L21.7147 18.1508L22.7716 17.5406V16.3202L21.7147 15.71Z" fill="#A3A3A3"/>
<path d="M6.54641 12.7812L7.60333 13.3914V14.6118L6.54641 15.222L5.48949 14.6118V13.3914L6.54641 12.7812Z" fill="#A3A3A3"/>
<path d="M16.659 12.7812L15.6021 13.3914V14.6118L16.659 15.222L17.7159 14.6118V13.3914L16.659 12.7812Z" fill="#A3A3A3"/>
<path d="M6.54641 18.6042L7.60333 19.2144V20.4348L6.54641 21.045L5.48949 20.4348V19.2144L6.54641 18.6042Z" fill="#A3A3A3"/>
<path d="M16.659 18.6042L15.6021 19.2144V20.4348L16.659 21.045L17.7159 20.4348V19.2144L16.659 18.6042Z" fill="#A3A3A3"/>
<path d="M6.54641 24.4272L7.60333 25.0374V26.2578L6.54641 26.868L5.48949 26.2578V25.0374L6.54641 24.4272Z" fill="#A3A3A3"/>
<path d="M16.659 24.4272L15.6021 25.0374V26.2578L16.659 26.868L17.7159 26.2578V25.0374L16.659 24.4272Z" fill="#A3A3A3"/>
<path d="M1.49063 9.95636L2.54754 10.5666V11.787L1.49063 12.3972L0.433708 11.787V10.5666L1.49063 9.95636Z" fill="#A3A3A3"/>
<path d="M21.7147 9.95636L20.6578 10.5666V11.787L21.7147 12.3972L22.7716 11.787V10.5666L21.7147 9.95636Z" fill="#A3A3A3"/>
<path d="M6.54641 7.0275L7.60333 7.63771V8.85813L6.54641 9.46834L5.48949 8.85813V7.63771L6.54641 7.0275Z" fill="#A3A3A3"/>
<path d="M16.659 7.0275L15.6021 7.63771V8.85813L16.659 9.46834L17.7159 8.85813V7.63771L16.659 7.0275Z" fill="#A3A3A3"/>
<path d="M1.49063 21.4631L2.54754 22.0733V23.2938L1.49063 23.904L0.433708 23.2938V22.0733L1.49063 21.4631Z" fill="#A3A3A3"/>
<path d="M21.7147 21.4631L20.6578 22.0733V23.2938L21.7147 23.904L22.7716 23.2938V22.0733L21.7147 21.4631Z" fill="#A3A3A3"/>
<path d="M39.0291 10.8869H41.9482V23.5H39.0291V10.8869ZM33.2992 23.5H30.3802V10.8869H33.2992V23.5ZM39.2454 18.3286H33.083V15.8601H39.2454V18.3286ZM44.7522 23.5V10.8869H50.2118C51.341 10.8869 52.314 11.0731 53.1309 11.4455C53.9477 11.8059 54.5784 12.3284 55.0228 13.0131C55.4673 13.6978 55.6895 14.5147 55.6895 15.4637C55.6895 16.4006 55.4673 17.2115 55.0228 17.8962C54.5784 18.5689 53.9477 19.0854 53.1309 19.4458C52.314 19.8062 51.341 19.9864 50.2118 19.9864H46.3739L47.6712 18.707V23.5H44.7522ZM52.7705 23.5L49.6172 18.9233H52.7344L55.9237 23.5H52.7705ZM47.6712 19.0314L46.3739 17.662H50.0497C50.9506 17.662 51.6233 17.4698 52.0678 17.0854C52.5122 16.6889 52.7344 16.1484 52.7344 15.4637C52.7344 14.767 52.5122 14.2264 52.0678 13.842C51.6233 13.4576 50.9506 13.2654 50.0497 13.2654H46.3739L47.6712 11.878V19.0314ZM57.7449 23.5V10.6649H59.9072V23.5H57.7449ZM66.7236 23.6211C65.778 23.6211 64.9362 23.4193 64.1981 23.0157C63.4601 22.6005 62.8777 22.0354 62.451 21.3205C62.0244 20.6055 61.811 19.7925 61.811 18.8815C61.811 17.9589 62.0244 17.1459 62.451 16.4424C62.8777 15.7275 63.4601 15.1682 64.1981 14.7645C64.9362 14.3609 65.778 14.1591 66.7236 14.1591C67.6808 14.1591 68.5284 14.3609 69.2664 14.7645C70.016 15.1682 70.5984 15.7217 71.0135 16.4251C71.4402 17.1286 71.6535 17.9474 71.6535 18.8815C71.6535 19.7925 71.4402 20.6055 71.0135 21.3205C70.5984 22.0354 70.016 22.6005 69.2664 23.0157C68.5284 23.4193 67.6808 23.6211 66.7236 23.6211ZM66.7236 21.7702C67.2541 21.7702 67.7269 21.6549 68.1421 21.4242C68.5572 21.1936 68.8801 20.8592 69.1107 20.421C69.3529 19.9828 69.474 19.4696 69.474 18.8815C69.474 18.2818 69.3529 17.7686 69.1107 17.3419C68.8801 16.9037 68.5572 16.5693 68.1421 16.3387C67.7269 16.108 67.2599 15.9927 66.7409 15.9927C66.2105 15.9927 65.7376 16.108 65.3225 16.3387C64.9189 16.5693 64.596 16.9037 64.3538 17.3419C64.1116 17.7686 63.9906 18.2818 63.9906 18.8815C63.9906 19.4696 64.1116 19.9828 64.3538 20.421C64.596 20.8592 64.9189 21.1936 65.3225 21.4242C65.7376 21.6549 66.2047 21.7702 66.7236 21.7702ZM77.7343 26.9769C76.8809 26.9769 76.0449 26.8616 75.2261 26.6309C74.4189 26.4118 73.7558 26.0889 73.2368 25.6622L74.2055 24.0362C74.6091 24.3707 75.1165 24.6359 75.7277 24.8319C76.3505 25.0395 76.979 25.1433 77.6132 25.1433C78.628 25.1433 79.3718 24.9069 79.8446 24.4341C80.3175 23.9728 80.5539 23.2751 80.5539 22.341V20.6977L80.7268 18.6047L80.6576 16.5116V14.2629H82.7161V22.0989C82.7161 23.771 82.2894 24.9992 81.4361 25.7833C80.5827 26.579 79.3488 26.9769 77.7343 26.9769ZM77.4575 23.0848C76.5811 23.0848 75.7854 22.9003 75.0704 22.5313C74.367 22.1508 73.8077 21.6261 73.3925 20.9572C72.9889 20.2884 72.7871 19.5042 72.7871 18.6047C72.7871 17.7167 72.9889 16.9383 73.3925 16.2695C73.8077 15.6006 74.367 15.0817 75.0704 14.7127C75.7854 14.3436 76.5811 14.1591 77.4575 14.1591C78.2417 14.1591 78.9451 14.3148 79.5679 14.6262C80.1906 14.9375 80.6865 15.4219 81.0555 16.0792C81.4361 16.7365 81.6263 17.5783 81.6263 18.6047C81.6263 19.631 81.4361 20.4786 81.0555 21.1475C80.6865 21.8048 80.1906 22.2949 79.5679 22.6178C78.9451 22.9292 78.2417 23.0848 77.4575 23.0848ZM77.7862 21.2513C78.3282 21.2513 78.8125 21.1417 79.2392 20.9226C79.6659 20.692 79.9946 20.3806 80.2252 19.9885C80.4674 19.5849 80.5885 19.1236 80.5885 18.6047C80.5885 18.0858 80.4674 17.6302 80.2252 17.2382C79.9946 16.8345 79.6659 16.5289 79.2392 16.3214C78.8125 16.1023 78.3282 15.9927 77.7862 15.9927C77.2442 15.9927 76.7541 16.1023 76.3159 16.3214C75.8892 16.5289 75.5548 16.8345 75.3126 17.2382C75.0819 17.6302 74.9666 18.0858 74.9666 18.6047C74.9666 19.1236 75.0819 19.5849 75.3126 19.9885C75.5548 20.3806 75.8892 20.692 76.3159 20.9226C76.7541 21.1417 77.2442 21.2513 77.7862 21.2513ZM85.3858 23.5V14.2629H87.548V23.5H85.3858ZM86.4756 12.7407C86.0719 12.7407 85.7375 12.6138 85.4723 12.3601C85.2186 12.1064 85.0917 11.8008 85.0917 11.4433C85.0917 11.0743 85.2186 10.7687 85.4723 10.5266C85.7375 10.2729 86.0719 10.146 86.4756 10.146C86.8792 10.146 87.2078 10.2671 87.4615 10.5093C87.7268 10.7399 87.8594 11.034 87.8594 11.3915C87.8594 11.772 87.7325 12.0949 87.4788 12.3601C87.2251 12.6138 86.8907 12.7407 86.4756 12.7407ZM94.451 23.6211C93.4823 23.6211 92.6174 23.4193 91.8563 23.0157C91.1067 22.6005 90.5186 22.0354 90.0919 21.3205C89.6652 20.6055 89.4519 19.7925 89.4519 18.8815C89.4519 17.9589 89.6652 17.1459 90.0919 16.4424C90.5186 15.7275 91.1067 15.1682 91.8563 14.7645C92.6174 14.3609 93.4823 14.1591 94.451 14.1591C95.3505 14.1591 96.1404 14.3436 96.8208 14.7127C97.5127 15.0701 98.0374 15.6006 98.3949 16.3041L96.7343 17.2727C96.4575 16.8345 96.1173 16.5116 95.7137 16.3041C95.3216 16.0965 94.895 15.9927 94.4337 15.9927C93.9032 15.9927 93.4246 16.108 92.998 16.3387C92.5713 16.5693 92.2368 16.9037 91.9947 17.3419C91.7525 17.7686 91.6314 18.2818 91.6314 18.8815C91.6314 19.4811 91.7525 20.0001 91.9947 20.4383C92.2368 20.8649 92.5713 21.1936 92.998 21.4242C93.4246 21.6549 93.9032 21.7702 94.4337 21.7702C94.895 21.7702 95.3216 21.6664 95.7137 21.4588C96.1173 21.2513 96.4575 20.9284 96.7343 20.4902L98.3949 21.4588C98.0374 22.1508 97.5127 22.687 96.8208 23.0676C96.1404 23.4366 95.3505 23.6211 94.451 23.6211ZM102.945 23.6211C102.173 23.6211 101.429 23.5231 100.714 23.327C100.01 23.1194 99.451 22.8715 99.0359 22.5832L99.8662 20.9399C100.281 21.2051 100.777 21.4242 101.354 21.5972C101.93 21.7702 102.507 21.8567 103.084 21.8567C103.764 21.8567 104.254 21.7644 104.554 21.5799C104.865 21.3954 105.021 21.1475 105.021 20.8361C105.021 20.5824 104.917 20.3921 104.71 20.2653C104.502 20.1269 104.231 20.0231 103.897 19.9539C103.562 19.8847 103.187 19.8213 102.772 19.7636C102.369 19.706 101.959 19.631 101.544 19.5388C101.14 19.435 100.771 19.2908 100.437 19.1063C100.103 18.9103 99.8316 18.6508 99.624 18.3279C99.4164 18.005 99.3126 17.5783 99.3126 17.0479C99.3126 16.4597 99.4799 15.9523 99.8143 15.5257C100.149 15.0874 100.616 14.753 101.215 14.5224C101.827 14.2802 102.547 14.1591 103.378 14.1591C104 14.1591 104.629 14.2283 105.263 14.3667C105.897 14.5051 106.422 14.7011 106.837 14.9548L106.007 16.5981C105.569 16.3329 105.125 16.1541 104.675 16.0619C104.237 15.9581 103.799 15.9062 103.36 15.9062C102.703 15.9062 102.213 16.0042 101.89 16.2003C101.579 16.3963 101.423 16.6443 101.423 16.9441C101.423 17.2209 101.527 17.4284 101.734 17.5668C101.942 17.7052 102.213 17.8147 102.547 17.8955C102.882 17.9762 103.251 18.0454 103.654 18.103C104.07 18.1492 104.479 18.2241 104.883 18.3279C105.286 18.4317 105.655 18.5759 105.99 18.7604C106.336 18.9333 106.612 19.1813 106.82 19.5042C107.028 19.8271 107.131 20.248 107.131 20.7669C107.131 21.3435 106.958 21.8452 106.612 22.2718C106.278 22.6985 105.799 23.033 105.177 23.2751C104.554 23.5058 103.81 23.6211 102.945 23.6211Z" fill="#A3A3A3"/>
</svg>
