<svg width="100" height="34" viewBox="0 0 100 34" fill="none" xmlns="http://www.w3.org/2000/svg">
<path d="M20.9619 28.217L23.5625 30.3313L26.3208 27.956L25.2166 26.9117V10.2203C25.2166 10.2203 24.9608 10.2674 24.9566 10.2973C24.8116 11.119 22.9528 13.0792 21.7378 13.4088V27.5836C21.7378 27.5836 21.2432 27.956 20.9619 28.217Z" fill="#A3A3A3"/>
<path d="M26.9291 19.1352H27.0655L28.6558 20.5005L28.7453 29.1244C28.7453 29.1244 29.1716 33.9435 24.3413 32.8949L24.3754 33.3229C25.0788 33.673 25.8592 33.8379 26.6435 33.8023C29.372 33.6353 31.7083 32.3214 31.9001 29.852C32.2284 25.5721 32.0536 18.9769 32.0536 18.9769L29.1162 16.8369L25.2025 19.9826V20.5476C25.2025 20.5476 26.9675 19.0967 26.9291 19.1352Z" fill="#A3A3A3"/>
<path d="M18.4896 20.8256C18.4753 20.8549 18.4625 20.8849 18.4513 20.9155C17.8962 22.466 16.959 23.8501 15.727 24.9386C14.1475 26.3117 12.1063 27.0295 10.0185 26.9458C6.10048 26.7532 3.50839 24.104 3.50839 20.2179C3.55382 19.0281 3.84214 17.8603 4.35548 16.787C4.86882 15.7136 5.59625 14.7575 6.4927 13.9779C6.20883 13.9286 5.91759 13.9432 5.64004 14.0207C2.57046 15.4073 0.460144 18.3005 0.460144 21.6773C0.460144 26.3852 4.60833 30.2071 9.72428 30.2071C13.476 30.2071 16.7118 28.1484 18.1656 25.1911C18.7582 23.646 18.5195 21.1252 18.4896 20.8256Z" fill="#A3A3A3"/>
<path d="M15.8843 14.517H15.5269V25.4264H15.8843V14.517Z" fill="#A3A3A3"/>
<path d="M9.52703 13.041L9.42896 25.2257L7.39111 26.5096L7.7279 26.882L13.1849 23.3768V16.6146C13.1849 16.6146 13.1466 14.4747 13.3768 14.4319" fill="#A3A3A3"/>
<path d="M8.10027 13.379C9.33663 13.73 9.67768 14.0724 10.7265 14.235C12.401 14.4575 14.0896 14.5547 15.7785 14.526C19.4748 14.526 20.9925 10.978 20.9925 10.978C19.7689 11.4916 15.5269 11.864 12.7004 11.2562C10.6838 10.8282 9.81837 10.6913 8.43706 10.4002C0.166259 8.73538 0 15.3221 0 15.3221C0.85266 14.9668 2.4514 11.7698 8.10027 13.379Z" fill="#A3A3A3"/>
<path d="M15.1496 19.6358L15.6782 19.0456L16.2367 19.6529L15.7422 20.2945L15.1496 19.6358Z" fill="#A3A3A3"/>
<path d="M44.7153 25.5338L44.4339 25.2471L41.1725 27.8835L38.3715 25.8505L38.346 24.6821L43.8669 20.4023L41.5946 16.4605C40.4192 17.1643 39.2003 17.7918 37.9452 18.3394C37.3185 18.5705 34.9183 19.5292 34.9183 19.5292L34.9609 26.8862L33.1788 28.3029L33.4048 28.641L35.012 27.3998L38.913 30.2417L44.7153 25.5338ZM38.3204 18.6604L39.2199 18.2324L41.3303 21.8702L38.3076 24.2456L38.3204 18.6604Z" fill="#A3A3A3"/>
<path d="M71.8669 20.2605L71.3638 20.7784L71.0612 20.5002L71.8797 19.6699L72.8603 18.6641L73.7726 17.7226C75.2861 18.8353 76.693 19.8197 76.693 19.8197V26.4791L78.7223 27.9771C78.7223 27.9771 80.1207 26.569 80.1676 26.4877C80.1676 25.4562 80.1676 21.2663 80.1676 21.2663L78.7521 20.1663L78.1638 20.6842L77.8782 20.4189L80.5513 17.7226L83.2883 19.8625L84.1751 18.9766L84.4351 19.289L83.5569 20.192V27.532L84.2689 27.9985L85.0916 27.1896L85.3645 27.4678L82.3461 30.5279L80.1804 28.9572V27.0869L76.8933 30.4679L73.4102 27.9985L72.5064 28.8544L72.2165 28.572L73.3207 27.4592V21.2748L71.8925 20.2434" fill="#A3A3A3"/>
<path d="M71.8669 20.2605L71.3638 20.7784L71.0612 20.5002L71.8797 19.6699L72.8603 18.6641L73.7726 17.7226C75.2861 18.8353 76.693 19.8197 76.693 19.8197V26.4791L78.7223 27.9771C78.7223 27.9771 80.1207 26.569 80.1676 26.4877C80.1676 25.4562 80.1676 21.2663 80.1676 21.2663L78.7521 20.1663L78.1638 20.6842L77.8782 20.4189L80.5513 17.7226L83.2883 19.8625L84.1751 18.9766L84.4351 19.289L83.5569 20.192V27.532L84.2689 27.9985L85.0916 27.1896L85.3645 27.4678L82.3461 30.5279L80.1804 28.9572V27.0869L76.8933 30.4679L73.4102 27.9985L72.5064 28.8544L72.2165 28.572L73.3207 27.4592V21.2748L71.8925 20.2434" fill="#A3A3A3"/>
<path d="M91.5048 19.6786V21.2493L94.6639 17.6071L97.8443 19.8797L98.5989 19.0879L98.8888 19.3576L98.7695 19.4303L97.9978 20.3291V27.1383L99.0295 27.9472L99.7159 27.164L100.002 27.4508L97.3157 30.5151L94.8344 28.5336V21.6473L92.8818 20.2777L91.492 21.8827V27.9644L92.204 28.7476C92.1741 28.7476 92.2039 28.7946 92.1741 28.8118C91.2936 29.331 90.4592 29.9252 89.6801 30.5879C89.6801 30.5879 88.2561 29.3553 87.5484 28.8503L88.1197 28.097V21.108L86.7811 20.1365L86.2865 20.6544L85.9923 20.389L87.4546 18.7327L88.4864 17.5001L91.5048 19.6786Z" fill="#A3A3A3"/>
<path d="M67.5764 19.6617C67.1114 19.4214 66.6189 19.2389 66.1098 19.1182C66.2548 18.9427 67.0307 18.0097 67.2439 17.7615L67.7128 17.3078C67.7065 17.3618 67.7065 17.4164 67.7128 17.4704C67.711 17.5962 67.7368 17.7208 67.7884 17.8355C67.84 17.9501 67.9162 18.0519 68.0114 18.1336C68.1067 18.2153 68.2187 18.275 68.3395 18.3083C68.4603 18.3416 68.587 18.3478 68.7105 18.3264C68.9768 18.2577 69.2113 18.0988 69.3745 17.8766C69.5376 17.6543 69.6193 17.3824 69.6057 17.1067C69.6076 16.9809 69.5817 16.8562 69.5301 16.7416C69.4785 16.627 69.4024 16.5252 69.3072 16.4435C69.2119 16.3618 69.0999 16.3021 68.9791 16.2688C68.8582 16.2355 68.7316 16.2293 68.6082 16.2507H68.5612L68.493 16.2764L68.4077 16.3106C67.7299 16.6016 67.1287 17.342 66.6513 17.9626C66.2249 18.489 65.8413 18.9427 65.7688 19.0197C64.7157 18.8057 63.2108 18.6345 62.1194 18.5275C64.1274 16.2421 65.8455 14.3718 68.2799 11.637L68.0454 11.3802C67.619 11.8681 67.5423 11.9237 66.9625 12.5357C65.8133 11.8433 64.559 11.3445 63.2492 11.0592C61.795 10.7555 60.3001 10.7019 58.8281 10.9009C57.465 11.1636 56.2108 11.8281 55.2256 12.8097C54.5049 13.4913 53.943 14.3243 53.58 15.2492C53.2497 16.0322 53.1563 16.8955 53.3114 17.7315C53.4351 18.3694 53.7299 18.9614 54.1641 19.4434C54.3303 19.6874 55.2384 20.7017 59.0498 21.4336C58.6235 21.9086 58.3251 22.2553 57.8518 22.7475C57.634 23.0075 57.3912 23.2455 57.1271 23.4579C57.1362 23.4256 57.1433 23.3927 57.1484 23.3595C57.1777 23.2351 57.1789 23.1057 57.1518 22.9807C57.1248 22.8558 57.0702 22.7385 56.9921 22.6375C56.914 22.5366 56.8144 22.4544 56.7005 22.3972C56.5866 22.3399 56.4614 22.309 56.3341 22.3067C56.0596 22.3265 55.8008 22.4429 55.6035 22.6356C55.4061 22.8282 55.2829 23.0846 55.2555 23.3595C55.2269 23.4836 55.2263 23.6126 55.2537 23.737C55.2811 23.8614 55.3358 23.9781 55.4138 24.0785C55.4918 24.179 55.5912 24.2607 55.7047 24.3177C55.8182 24.3748 55.9429 24.4056 56.0698 24.4081C56.1505 24.4075 56.2308 24.396 56.3085 24.3738H56.3682C56.8371 24.2026 57.2209 24.0015 58.2995 22.7732C58.5254 22.5207 59.0669 21.9386 59.4548 21.5234C60.0602 21.6304 60.7338 21.7332 61.4884 21.823C62.243 21.9129 62.8399 22.0114 63.3771 22.1269C62.5244 23.214 61.7954 24.1427 60.7423 25.4095C57.9097 25.0868 55.0458 25.6266 52.5227 26.9588C51.0263 27.7806 49.4958 28.9319 48.9714 30.7594C48.8072 31.2802 48.8071 31.8392 48.9711 32.3601C49.1352 32.8809 49.4554 33.3383 49.888 33.6697C50.9496 34.3887 52.3138 33.7895 53.4862 33.2417C55.2214 32.3857 56.5473 31.0803 57.7921 29.7194C58.2739 29.1887 59.2374 28.0074 59.2758 27.9475C60.0198 28.1313 60.7428 28.3924 61.433 28.7264C62.1725 29.0939 62.8653 29.5494 63.4964 30.0831C63.5348 30.1131 64.2894 30.8706 64.2724 30.892L64.6774 30.5325C67.0563 28.5338 69.367 26.1671 69.7507 23.1241C69.9127 21.4379 68.655 20.1667 67.619 19.7002L67.5764 19.6617ZM55.2555 17.4918C54.6202 17.1066 54.0959 16.6359 54.1342 15.904C54.1461 15.3653 54.3061 14.8404 54.5965 14.3872C54.8869 13.934 55.2965 13.5703 55.7799 13.3361C57.984 12.3004 60.1924 12.861 61.9147 13.5886C62.8629 14.0118 63.7562 14.5493 64.575 15.1893C63.2619 16.7343 62.9379 17.1024 61.6632 18.5575C58.9006 18.3649 55.8907 18.0097 55.2683 17.5047L55.2555 17.4918ZM58.2867 28.5467C57.1282 30.0124 55.721 31.2614 54.13 32.2359C53.2332 32.8904 52.1521 33.2412 51.0433 33.2374C50.7184 33.2413 50.3981 33.1601 50.1139 33.002C49.8313 32.7779 49.6318 32.4649 49.5475 32.1133C49.4633 31.7617 49.4991 31.3919 49.6493 31.0632C50.4166 29.27 52.9235 28.0288 55.6179 27.6736C56.6933 27.5262 57.787 27.5931 58.8367 27.8705L58.2824 28.5467H58.2867ZM61.1772 25.5508C62.064 24.3824 62.9124 23.3595 63.7608 22.2596L64.2212 22.3709C64.4176 22.4218 64.6111 22.4832 64.801 22.5549C65.5145 22.804 66.1849 23.1636 66.7877 23.6206C67.1059 23.8434 67.3703 24.135 67.5612 24.474C67.7522 24.813 67.8649 25.1907 67.8911 25.5793C67.9172 25.9678 67.8562 26.3573 67.7125 26.7191C67.5688 27.0808 67.346 27.4055 67.0606 27.6693C67.0606 27.6693 66.971 27.7678 66.9028 27.832L66.792 27.9047C65.088 26.7661 63.1818 25.9669 61.1772 25.5508Z" fill="#A3A3A3"/>
<path d="M37.7497 5.44387L34.4158 6.18856V6.09868C34.6217 6.04767 34.8147 5.9544 34.9829 5.82476C35.0358 5.72823 35.0684 5.62182 35.0787 5.51213C35.0889 5.40244 35.0766 5.2918 35.0426 5.18707C35.0042 4.91315 34.9147 4.44665 34.7996 3.92879C34.6844 3.41093 34.6375 3.17553 34.4968 2.61487C34.3945 2.18689 34.3434 2.06705 34.1728 2.00285C33.9854 1.9679 33.7932 1.9679 33.6058 2.00285V1.90871L36.1638 1.34805C36.5901 1.24961 36.7266 1.21538 36.7735 1.0827H36.8417L37.0079 2.09274H36.9269C36.9269 2.09274 36.8331 1.74179 36.6626 1.66476C36.4574 1.60893 36.2411 1.60893 36.0359 1.66476C35.8867 1.69044 35.682 1.73323 35.503 1.77175L35.0767 1.87018C35.1747 2.40944 35.3026 3.03857 35.4135 3.54787L36.4622 3.29538C36.5728 3.2784 36.6724 3.21845 36.7393 3.12846C36.8 2.99457 36.8207 2.84593 36.799 2.70047H36.8758L37.1657 4.01011H37.0889C37.0189 3.83211 36.9113 3.6715 36.7735 3.53933L35.4945 3.83036C35.4945 3.83036 35.6437 4.54082 35.7673 4.98592C35.8909 5.43103 36.006 5.60222 36.62 5.46527C37.02 5.39804 37.3846 5.19387 37.6517 4.88747C37.7388 4.73634 37.7994 4.57132 37.8308 4.39959H37.9075L37.8009 5.44387" fill="#A3A3A3"/>
<path d="M31.2259 2.70483C31.098 2.81611 31.0895 2.96592 31.196 3.38534C31.4689 4.40823 31.6906 5.15291 32.0487 6.34271C32.0913 6.49678 32.2107 6.84344 32.2107 6.84344L32.0658 6.91622L27.9943 4.44245C27.9943 4.44245 28.4547 6.00033 28.6636 6.67226C28.8725 7.3442 28.9536 7.40838 29.1156 7.42549C29.3024 7.43981 29.4903 7.4283 29.674 7.39127L29.7039 7.48113L27.8579 8.0204L27.8323 7.93054C28.0083 7.86208 28.1734 7.76837 28.3226 7.65234C28.442 7.54534 28.4334 7.31852 28.3226 6.85629C28.0924 5.91901 27.5978 4.18139 27.5978 4.18139C27.4455 4.07926 27.2807 3.99727 27.1076 3.93743C26.9327 3.8925 26.7495 3.8925 26.5747 3.93743L26.5491 3.84755L28.4164 3.29974L28.442 3.3896C28.442 3.3896 28.1265 3.51373 28.1094 3.70205C29.4652 4.55802 31.584 5.81201 31.584 5.81201C31.584 5.81201 31.1918 4.52806 30.8806 3.59933C30.6972 3.05579 30.6034 2.94878 30.3945 2.9445C30.2257 2.93202 30.0561 2.93202 29.8872 2.9445V2.8589L31.6863 2.33249L31.7119 2.41809C31.5608 2.4911 31.4179 2.58005 31.2856 2.68344" fill="#A3A3A3"/>
<path d="M45.4669 0.316734C45.2964 0.43229 45.1216 0.61633 44.9041 1.33962C44.4778 2.7049 43.9534 4.69076 43.9534 4.69076L43.7829 4.72072C43.7829 4.72072 43.6806 4.49388 43.6081 4.31841C43.105 3.21421 42.2822 1.62208 42.2822 1.62208C42.2822 1.62208 41.7706 3.30408 41.323 4.9775L41.1524 5.00746L40.9862 4.61372C40.5343 3.58228 40.0781 2.61075 39.6091 1.61783C39.5249 1.37625 39.3609 1.17084 39.1444 1.03575C38.9662 0.955793 38.7726 0.916353 38.5774 0.920208V0.830321L40.6622 0.603503V0.697647C40.5001 0.744726 40.1804 0.80036 40.2102 1.09567C40.2363 1.26931 40.2881 1.43807 40.3637 1.59641C40.5726 2.08003 40.8753 2.74341 41.3571 3.77058C41.6427 2.79477 42.0818 1.20267 42.0818 1.20267C42.0043 0.998184 41.8518 0.831268 41.6555 0.736177C41.507 0.663067 41.3434 0.626396 41.178 0.629181V0.535011L43.3097 0.308192V0.402336C43.169 0.436575 42.6957 0.517886 42.7341 0.877394C42.7602 1.04748 42.8135 1.21224 42.8918 1.3653C43.25 2.12712 43.5783 2.75197 43.9747 3.50523C43.9747 3.50523 44.3158 2.25979 44.5204 1.3653C44.5892 1.11306 44.6208 0.85208 44.6142 0.590651C44.5844 0.299621 44.2689 0.329578 44.06 0.321018V0.226874L45.9529 0.0214233V0.115594C45.7822 0.148445 45.618 0.209161 45.4669 0.29534" fill="#A3A3A3"/>
<path d="M54.3371 0.457947C54.1259 0.563407 53.9485 0.726581 53.8255 0.92872C53.3992 1.52362 52.7426 2.58502 52.7426 2.58502C52.7122 2.78641 52.6923 2.98929 52.683 3.19278C52.683 3.39393 52.6617 3.59936 52.6574 3.74915C52.6574 4.02306 52.6574 4.22849 52.8492 4.3526C53.022 4.42717 53.2042 4.47759 53.3907 4.50241V4.59656L51.1141 4.44249V4.3526C51.3023 4.34829 51.4895 4.3239 51.6726 4.27985C51.8474 4.21993 51.907 4.05302 51.9454 3.71491C51.9838 3.3768 52.0222 2.77333 52.0222 2.77333C52.0222 2.77333 51.4338 1.46799 51.0331 0.719012C50.9456 0.530485 50.8174 0.363828 50.6579 0.231103C50.5461 0.161192 50.4214 0.114636 50.2913 0.0941703V0L52.1714 0.124106V0.218277C52.0477 0.218277 51.7451 0.218284 51.7451 0.466515C51.7507 0.616619 51.7916 0.763257 51.8644 0.8945C51.971 1.15557 52.5807 2.35392 52.5807 2.35392C52.8666 1.92881 53.1298 1.48879 53.3694 1.03572C53.4455 0.903362 53.4975 0.758426 53.5228 0.607731C53.5228 0.308142 53.2244 0.286748 53.0965 0.265349V0.171204L54.7464 0.278201V0.376629C54.6179 0.377017 54.4906 0.401692 54.3712 0.449379" fill="#A3A3A3"/>
<path d="M57.7005 5.16105C57.3983 5.11243 57.1087 5.0038 56.8488 4.8415C56.5889 4.6792 56.3638 4.46649 56.1868 4.21582C56.0097 3.96515 55.8842 3.68157 55.8177 3.38164C55.7511 3.0817 55.7448 2.77145 55.7991 2.46903C55.861 2.16136 55.9839 1.86931 56.1606 1.61029C56.3372 1.35127 56.5639 1.13056 56.8272 0.961264C57.0905 0.79197 57.385 0.67756 57.6932 0.624837C58.0015 0.572114 58.3171 0.582173 58.6214 0.654381C58.9256 0.695968 59.2182 0.799346 59.4813 0.958234C59.7444 1.11712 59.9725 1.32818 60.1516 1.5785C60.3308 1.82883 60.4572 2.11319 60.5232 2.4142C60.5893 2.71522 60.5935 3.02658 60.5356 3.32929C60.4736 3.63872 60.3503 3.93249 60.1731 4.19322C59.9959 4.45396 59.7684 4.67632 59.504 4.84714C59.2396 5.01796 58.9438 5.13377 58.634 5.18769C58.3242 5.24161 58.0068 5.23255 57.7005 5.16105ZM58.4764 0.8812C57.4916 0.692886 56.8479 1.59593 56.6645 2.59314C56.4258 3.84286 56.9502 4.79297 57.8369 4.96417C58.826 5.15248 59.4655 4.34359 59.6787 3.25223C59.8919 2.16087 59.4868 1.11232 58.4764 0.915446" fill="#A3A3A3"/>
<path d="M66.0439 6.60332C65.7037 6.55251 65.3826 6.41375 65.112 6.20065C64.8414 5.98754 64.6307 5.70744 64.5006 5.38786C64.3504 5.00611 64.2515 4.60599 64.2064 4.19805C64.006 4.19805 63.4774 4.15954 63.4774 4.15954C63.4774 4.15954 63.3623 4.72875 63.3026 5.13533C63.2728 5.36217 63.1918 5.71739 63.4646 5.85435C63.6053 5.91854 63.8611 6.00841 63.8611 6.00841V6.0983L61.7635 5.67031V5.58043C61.9394 5.61305 62.1203 5.60426 62.2922 5.55475C62.5011 5.45203 62.548 5.21236 62.6034 5.01977C62.6588 4.82718 62.791 4.2494 62.8976 3.73581C62.9871 3.30783 63.0894 2.78569 63.1534 2.4005C63.2173 2.01532 63.2259 1.83557 63.1065 1.70717C62.9732 1.59493 62.8154 1.51576 62.646 1.47607V1.3819C62.646 1.3819 63.7417 1.5959 64.2917 1.71145C65.2936 1.92545 65.997 2.44759 65.8478 3.2094C65.7783 3.44181 65.6407 3.6478 65.4528 3.80049C65.265 3.95319 65.0356 4.04549 64.7947 4.06537C64.8978 4.5679 65.0806 5.05055 65.3362 5.49485C65.5021 5.77783 65.7122 6.03215 65.9586 6.24808C66.1779 6.4133 66.4248 6.53796 66.6877 6.61617V6.70177C66.5299 6.70177 66.2614 6.64612 66.0482 6.60332H66.0439ZM63.9506 1.85698L63.5243 3.79574L64.1894 4.01401C64.3971 3.96581 64.5871 3.86001 64.7379 3.70867C64.8886 3.55734 64.994 3.36656 65.0421 3.15805C65.2126 2.35343 64.3898 1.97681 63.9165 1.87409" fill="#A3A3A3"/>
<path d="M67.8406 7.10401L67.8704 7.01415C68.0433 7.04703 68.2189 7.06421 68.3948 7.06551C68.5355 7.06551 68.6634 6.96707 68.8212 6.53052C68.9789 6.09398 69.111 5.73018 69.2816 5.21232C69.4521 4.69446 69.563 4.38204 69.7079 3.96261C69.7761 3.74862 69.8529 3.53462 69.7079 3.36771C69.5846 3.24215 69.4403 3.13932 69.2816 3.06385L69.3114 2.97397L71.2299 3.62877L71.2001 3.71866C71.0545 3.67054 70.9009 3.65163 70.7481 3.66302C70.5605 3.69726 70.4625 3.91982 70.3645 4.18517C70.2067 4.61316 70.0959 4.92559 69.9381 5.41777C69.7804 5.90996 69.6525 6.27374 69.5118 6.77876C69.401 7.14255 69.3924 7.30518 69.5118 7.44642C69.6418 7.55432 69.7851 7.64495 69.9381 7.71605L69.9083 7.80591L67.8406 7.10401ZM70.3986 7.95998L70.4284 7.87012C70.4284 7.87012 70.7311 7.95999 70.8547 7.84016C70.8429 7.69258 70.8069 7.54797 70.7481 7.41217C70.4156 6.48772 70.0319 5.63602 70.0319 5.63602C70.5435 5.32787 71.004 5.02829 71.4772 4.67734C71.75 4.47191 71.8822 4.34778 71.9291 4.21511C71.976 4.08243 71.7884 3.91125 71.6051 3.82565L71.6349 3.73577L73.4554 4.35207L73.4255 4.44195C73.2678 4.40772 72.8201 4.22369 71.9547 4.71587C71.6307 4.90418 70.9528 5.33216 70.7268 5.50763C71.0167 6.31224 71.2853 6.99275 71.4815 7.46781C71.582 7.77883 71.756 8.06078 71.9888 8.28954C72.0938 8.37828 72.2117 8.45044 72.3384 8.50353L72.3085 8.58913L70.3986 7.95998Z" fill="#A3A3A3"/>
</svg>
